<svg xmlns="http://www.w3.org/2000/svg" width="429.51" height="450.938" viewBox="0 0 429.51 450.938"><defs><style>.a{opacity:0.1;}.b{fill:#fff;}.c{fill:#e8e8e8;}.d{fill:#e0e0e0;}.e{fill:#263238;}.f{fill:#fafafa;}.g{fill:#eb996e;}.h{fill:#d57949;}.i{fill:#0f0f0f;}.j{fill:#f7e34f;}.k{fill:#ffe53c;}.l{fill:#da005a;}.m{opacity:0.6;}.n{fill:#a80058;}.o{fill:#455a64;}.p{fill:#1d2b48;}.q{fill:#be6e44;}.r{fill:#d48359;}.s{fill:#ebebeb;}.t{fill:#0f9b2c;}.u{fill:#8cc408;}.v{fill:#37d6b5;}</style></defs><g transform="translate(-854.981 -17.603)"><g class="a"><rect class="b" width="104.103" height="150.893" transform="translate(886.551 17.605)"/><rect class="b" width="104.103" height="150.893" transform="translate(881.336 17.605)"/><rect class="c" width="78.235" height="118.208" transform="translate(894.27 33.948)"/><path class="b" d="M972.505,152.156s-.01-.2-.015-.578-.009-.947-.016-1.676c-.007-1.486-.017-3.66-.031-6.484-.016-5.665-.04-13.921-.07-24.35-.031-20.844-.076-50.361-.128-85.12l.26.26-78.226.023h-.009l.283-.283c-.022,44.593-.042,85.708-.058,118.208l-.225-.226,56.945.119,15.733.057,4.129.026c.935.008,1.428.024,1.428.024s-.46.016-1.38.024l-4.088.026-15.682.057-57.085.119h-.226v-.226c-.016-32.5-.036-73.615-.057-118.208v-.283h.293l78.226.023h.26v.26c-.052,34.829-.1,64.4-.128,85.29-.03,10.4-.054,18.64-.07,24.292-.014,2.8-.024,4.958-.031,6.431-.007.717-.012,1.264-.016,1.647S972.505,152.156,972.505,152.156Z"/><path class="b" d="M968.878,34.737"/><path class="b" d="M985.731,17.6a18.02,18.02,0,0,1-1.855,2.7c-1.21,1.617-2.926,3.817-4.885,6.2s-3.79,4.485-5.145,5.982a17.969,17.969,0,0,1-2.291,2.337,19.557,19.557,0,0,1,1.987-2.6l5.012-6.081c1.9-2.3,3.613-4.389,5.007-6.084A19.658,19.658,0,0,1,985.731,17.6Z"/><path class="b" d="M972.9,151.775a96.891,96.891,0,0,0,13.645,17.066"/><path class="b" d="M986.549,168.841a15.592,15.592,0,0,1-2.379-2.164,76.388,76.388,0,0,1-9.679-12.1,15.5,15.5,0,0,1-1.587-2.8,21.659,21.659,0,0,1,1.919,2.572c1.148,1.611,2.76,3.815,4.642,6.171s3.678,4.411,5,5.884A21.577,21.577,0,0,1,986.549,168.841Z"/><path class="b" d="M881.321,168.379l13.636-16.824"/><path class="b" d="M894.957,151.555a103.76,103.76,0,0,1-6.6,8.59,103.66,103.66,0,0,1-7.038,8.234,103.645,103.645,0,0,1,6.6-8.59A103.646,103.646,0,0,1,894.957,151.555Z"/><path class="b" d="M881.336,17.6a94.316,94.316,0,0,1,6.618,7.912,93.99,93.99,0,0,1,6.175,8.264,93.926,93.926,0,0,1-6.619-7.913A94.064,94.064,0,0,1,881.336,17.6Z"/><rect class="d" width="26.196" height="74.379" transform="translate(921.934 57.949)"/></g><g class="a"><rect class="b" width="224.253" height="103.423" transform="translate(854.981 227.738)"/><path class="b" d="M1073.9,326.287H860.114V233.18H1073.9Zm-212.387-1.395H1072.5V234.575H861.509Z"/><rect class="b" width="54.784" height="103.423" transform="translate(1079.234 227.738)"/><path class="b" d="M860.811,261.994H1073.2a.282.282,0,0,0,0-.563H860.811a.282.282,0,0,0,0,.563Z"/><path class="b" d="M967.7,261.713a232.59,232.59,0,0,0,.072-28.093.286.286,0,0,0-.572,0,232.615,232.615,0,0,0,.073,28.093.214.214,0,0,0,.427,0Z"/><path class="b" d="M1024.866,247.666a2.893,2.893,0,1,1-2.893-2.893A2.894,2.894,0,0,1,1024.866,247.666Z"/><path class="b" d="M913.4,247.666a2.893,2.893,0,1,1-2.893-2.893A2.894,2.894,0,0,1,913.4,247.666Z"/><circle class="b" cx="2.893" cy="2.893" r="2.893" transform="translate(964.112 276.84)"/><path class="b" d="M881.793,331.161l-11.546,64.931h6.494l21.287-64.931Z"/><path class="b" d="M1063.368,331.161l9.655,65.044h-6.495l-19.4-65.044Z"/><path class="b" d="M1106.72,331.161,1117.66,396.2h-6.495l-20.681-65.044Z"/><path class="b" d="M969.7,309a2.893,2.893,0,1,1-2.893-2.893A2.893,2.893,0,0,1,969.7,309Z"/><path class="b" d="M860.811,294.021H1073.2a.282.282,0,0,0,0-.563H860.811a.282.282,0,0,0,0,.563Z"/></g><g class="a"><path class="b" d="M1255.033,304.785c-.095.119-.888-.358-1.771-1.065s-1.522-1.376-1.427-1.495.888.359,1.771,1.066S1255.128,304.667,1255.033,304.785Z"/><path class="b" d="M1279.121,268.78c.146-3.364.241-6.813-.821-10.009s-3.526-6.134-6.823-6.817c-3.763-.779-7.619,1.6-9.728,4.809s-2.833,7.114-3.456,10.906a385.174,385.174,0,0,0-4.721,79.16l15.4,2.16C1275.735,321.356,1277.892,297.2,1279.121,268.78Z"/><path class="b" d="M1269.339,251.836a.877.877,0,0,1-.069.245c-.069.188-.152.418-.255.7l-1.025,2.66c-.215.58-.5,1.208-.73,1.925s-.48,1.5-.748,2.332l-.863,2.678q-.377,1.449-.8,3.053a133.923,133.923,0,0,0-2.974,15.24c-.833,5.79-1.38,12.205-1.81,18.944-.787,13.492-.91,25.739-1.257,34.6-.165,4.428-.316,8.011-.486,10.484q-.122,1.8-.193,2.848c-.026.3-.047.54-.064.739a.822.822,0,0,1-.041.251.922.922,0,0,1-.015-.254c0-.2.005-.444.009-.742q.033-1.047.09-2.852c.1-2.475.2-6.058.311-10.486.247-8.855.309-21.1,1.1-34.616.431-6.751.994-13.179,1.857-18.983a127.466,127.466,0,0,1,3.1-15.267q.439-1.6.836-3.054.48-1.417.906-2.674t.793-2.325c.245-.714.546-1.338.777-1.914l1.124-2.626.3-.677A.9.9,0,0,1,1269.339,251.836Z"/><path class="b" d="M1270.766,251.844a11.033,11.033,0,0,1,1.881,3.186,23.585,23.585,0,0,1,1.405,9.962c-.41,8.508-1.171,20.233-2.184,33.179s-2.147,24.651-3.056,33.111c-.454,4.231-.848,7.651-1.137,10.013q-.221,1.714-.35,2.718c-.041.282-.076.513-.1.7a.861.861,0,0,1-.054.238.793.793,0,0,1,0-.245c.014-.193.03-.426.05-.711q.092-1.006.247-2.728c.232-2.419.56-5.832.963-10.029.81-8.468,1.876-20.172,2.894-33.115s1.836-24.668,2.344-33.15a24.118,24.118,0,0,0-1.214-9.868A20.681,20.681,0,0,0,1270.766,251.844Z"/><path class="b" d="M1281.442,291.7a16.492,16.492,0,0,1-5.651-2.027,16.528,16.528,0,0,1,5.651,2.027Z"/><path class="b" d="M1283.3,276.005a18.311,18.311,0,0,1-5.777,2.585,18.311,18.311,0,0,1,5.777-2.585Z"/><path class="b" d="M1282.336,263.2a9.622,9.622,0,0,1-4.554-.314,9.587,9.587,0,0,1,4.554.314Z"/><path class="b" d="M1266.445,254.989c-.129.081-.8-.759-1.506-1.877s-1.169-2.088-1.04-2.169.8.759,1.506,1.876S1266.573,254.908,1266.445,254.989Z"/><path class="b" d="M1261.194,262.733a8.772,8.772,0,0,1-4.362-.093,8.8,8.8,0,0,1,4.362.093Z"/><path class="b" d="M1257.424,278.231a5.34,5.34,0,0,1-2.3-.632c-1.215-.489-2.153-1-2.1-1.142a5.358,5.358,0,0,1,2.3.632C1256.542,277.579,1257.481,278.09,1257.424,278.231Z"/><path class="b" d="M1257.021,291.263c.031.149-.846.459-1.959.692s-2.041.3-2.072.154.845-.458,1.959-.692S1256.99,291.115,1257.021,291.263Z"/><path class="b" d="M1255.247,312.582c.027.149-.9.441-2.08.652a4.485,4.485,0,0,1-2.177.11c-.027-.149.9-.441,2.08-.652A4.485,4.485,0,0,1,1255.247,312.582Z"/><path class="b" d="M1254.069,324.349c.071.135-.706.685-1.735,1.229s-1.92.876-1.991.742.7-.684,1.734-1.228S1254,324.215,1254.069,324.349Z"/><path class="b" d="M1263.678,337.706c-.132.076-.808-.859-1.511-2.086a6.2,6.2,0,0,1-1.035-2.36c.132-.075.809.858,1.512,2.086A6.2,6.2,0,0,1,1263.678,337.706Z"/><path class="b" d="M1266.451,315.51c.106.108-.648,1.02-1.684,2.036s-1.962,1.751-2.069,1.643.648-1.02,1.684-2.036S1266.344,315.4,1266.451,315.51Z"/><path class="b" d="M1265.837,303.864c-.111.1-.81-.471-1.562-1.281s-1.27-1.553-1.158-1.656.811.471,1.562,1.282S1265.949,303.76,1265.837,303.864Z"/><path class="b" d="M1267.743,288.983c.113.1-.515.987-1.4,1.978s-1.7,1.713-1.813,1.612.515-.987,1.4-1.979S1267.63,288.882,1267.743,288.983Z"/><path class="b" d="M1268.817,278.183c-.107.109-.984-.58-1.958-1.538s-1.68-1.823-1.573-1.932.983.581,1.958,1.539S1268.923,278.075,1268.817,278.183Z"/><path class="b" d="M1270.925,263.585a5.4,5.4,0,0,1-.983,2.185c-.674,1.13-1.326,1.982-1.456,1.9s.31-1.056.983-2.186S1270.794,263.507,1270.925,263.585Z"/><path class="b" d="M1274.891,250.056a5.215,5.215,0,0,1-.87,2.188c-.614,1.136-1.22,2-1.354,1.926a5.227,5.227,0,0,1,.87-2.188C1274.151,250.846,1274.757,249.984,1274.891,250.056Z"/><path class="b" d="M1279.39,256.2c.066.137-.55.568-1.375.963s-1.548.6-1.614.467.551-.568,1.376-.963S1279.325,256.064,1279.39,256.2Z"/><path class="b" d="M1279.5,304.786a9.4,9.4,0,0,1-5.624-2.4,15.082,15.082,0,0,1,2.827,1.163A15.249,15.249,0,0,1,1279.5,304.786Z"/><path class="b" d="M1277.659,315.077c.029.149-.9.454-2.071.68a4.5,4.5,0,0,1-2.176.14c-.029-.149.9-.454,2.072-.68A4.5,4.5,0,0,1,1277.659,315.077Z"/><path class="b" d="M1275.4,332.722a8.722,8.722,0,0,1-3.815-4.811,594.759,594.759,0,0,0,3.815,4.811Z"/><path class="b" d="M1250.647,340.791c-.1-.116.527-.813,1.4-1.557s1.657-1.254,1.755-1.139-.526.813-1.4,1.557S1250.746,340.906,1250.647,340.791Z"/><path class="b" d="M1243.531,302.281c-1-3.13-2.883-6.778-6.169-6.825a5.461,5.461,0,0,0-4.62,3.091,11.417,11.417,0,0,0-1.248,5.666,147.6,147.6,0,0,0,7.062,41.016h12.023A142.847,142.847,0,0,0,1243.531,302.281Z"/><path class="b" d="M1221.787,282.58c-1.68-6.721-6.694-10.352-12.516-10.689-5.315.932-7.376,6.164-8.007,11.522s1.033,10.692,2.676,15.831q7.913,24.75,15.826,49.5l14.957-1.633C1229.989,325,1227.271,304.513,1221.787,282.58Z"/><path class="b" d="M1237.362,295.455a12.866,12.866,0,0,0-1.018,1.7,11.212,11.212,0,0,0-.563,5.316c.233,2.284.495,5.037.877,8.052s.937,6.33,1.612,9.783c1.36,6.908,2.891,13.1,3.863,17.623.493,2.258.865,4.091,1.1,5.362l.251,1.467a.262.262,0,1,1-.108.022c-.1-.392-.212-.869-.352-1.445-.32-1.339-.748-3.136-1.269-5.319-1.068-4.491-2.66-10.676-4.024-17.605-.677-3.463-1.208-6.787-1.575-9.825-.191-1.518-.318-2.967-.441-4.322s-.257-2.606-.321-3.767a10.914,10.914,0,0,1,.756-5.431A4.765,4.765,0,0,1,1237.362,295.455Z"/><path class="b" d="M1209.487,271.465a20.1,20.1,0,0,0-1.807,2.429,17.077,17.077,0,0,0-2.277,7.827,36.186,36.186,0,0,0,1.851,12.041c1.313,4.452,2.754,9.336,4.268,14.464,2.982,10.253,5.682,19.531,7.656,26.315.942,3.331,1.709,6.047,2.259,7.992l.588,2.181a4.321,4.321,0,0,1,.169.771,4.25,4.25,0,0,1-.275-.74q-.261-.813-.687-2.151l-2.428-7.943c-2.013-6.773-4.767-16.035-7.81-26.269-1.5-5.135-2.927-10.024-4.228-14.482a35.8,35.8,0,0,1-1.751-12.2,16.777,16.777,0,0,1,2.483-7.915A9.224,9.224,0,0,1,1209.487,271.465Z"/><path class="b" d="M1231.462,345.513a4.18,4.18,0,0,1-.338-.717c-.2-.48-.515-1.178-.852-2.1-.714-1.839-1.627-4.546-2.572-7.943s-1.885-7.493-2.788-12.063c-.867-4.58-1.818-9.6-2.817-14.879-1.041-5.265-2.2-10.248-3.543-14.694a81.849,81.849,0,0,0-4.36-11.525,61.152,61.152,0,0,0-4.033-7.266c-.514-.838-.981-1.443-1.26-1.881a4.3,4.3,0,0,1-.418-.673,4.263,4.263,0,0,1,.508.608c.307.417.8,1,1.348,1.827a54.274,54.274,0,0,1,4.2,7.216,78.133,78.133,0,0,1,4.495,11.546,147.652,147.652,0,0,1,3.6,14.735c.984,5.279,1.92,10.306,2.774,14.889.874,4.568,1.767,8.66,2.666,12.058s1.748,6.116,2.4,7.972c.306.935.591,1.644.754,2.136A4.369,4.369,0,0,1,1231.462,345.513Z"/><path class="b" d="M1204.207,296.774c.036.147-.778.472-1.817.724s-1.911.337-1.947.189.777-.471,1.817-.724S1204.171,296.626,1204.207,296.774Z"/><path class="b" d="M1202.622,286.565a18.54,18.54,0,0,1-5.059.2,8.714,8.714,0,0,1,5.059-.2Z"/><path class="b" d="M1204.308,277.242c-.1.116-.911-.412-1.815-1.179s-1.557-1.482-1.459-1.6.911.412,1.815,1.179S1204.406,277.126,1204.308,277.242Z"/><path class="b" d="M1208.87,268.611c.151.034.11.761.087,1.64s-.029,1.608-.182,1.633-.4-.707-.368-1.649S1208.726,268.575,1208.87,268.611Z"/><path class="b" d="M1218.195,272.678c.124.087-.241.823-.817,1.645s-1.142,1.417-1.267,1.33.241-.824.817-1.645S1218.07,272.591,1218.195,272.678Z"/><path class="b" d="M1224.245,283.189c.057.141-.717.59-1.73,1s-1.88.633-1.937.492.717-.589,1.73-1S1224.188,283.049,1224.245,283.189Z"/><path class="b" d="M1227.916,294a6.907,6.907,0,0,1-4.957,1.125,49.608,49.608,0,0,1,4.957-1.125Z"/><path class="b" d="M1211.062,290.933c-.145-.046-.039-.793.235-1.669s.615-1.55.76-1.505.04.793-.235,1.669S1211.207,290.978,1211.062,290.933Z"/><path class="b" d="M1213.414,304.511a5.16,5.16,0,0,1,.676-2.248c.513-1.182,1.042-2.09,1.181-2.03a5.165,5.165,0,0,1-.676,2.249C1214.082,303.663,1213.553,304.571,1213.414,304.511Z"/><path class="b" d="M1207.606,308.228c-.059.143-1.007-.116-2.154-.473s-2.073-.688-2.04-.839a4.049,4.049,0,0,1,2.2.314C1206.789,307.6,1207.664,308.09,1207.606,308.228Z"/><path class="b" d="M1210.954,319.3c.088.123-.553.732-1.431,1.359s-1.663,1.035-1.751.911.552-.732,1.431-1.359S1210.866,319.175,1210.954,319.3Z"/><path class="b" d="M1213.639,330.337c.036.147-.756.467-1.77.713s-1.864.327-1.9.179.756-.467,1.77-.713S1213.6,330.189,1213.639,330.337Z"/><path class="b" d="M1228.212,303.226c.076.127-.6.668-1.589,1.038s-1.852.414-1.878.268.747-.427,1.684-.783S1228.134,303.092,1228.212,303.226Z"/><path class="b" d="M1230.294,320.4c-.065.138-.872-.106-1.8-.544s-1.634-.9-1.57-1.043.872.107,1.8.545S1230.359,320.26,1230.294,320.4Z"/><path class="b" d="M1233.969,332.685a5.689,5.689,0,0,1-2.381-.637c-1.26-.494-2.236-1.009-2.181-1.151a5.7,5.7,0,0,1,2.382.638C1233.048,332.029,1234.025,332.544,1233.969,332.685Z"/><path class="b" d="M1214.228,342.312c-.075-.138.906-.8,2.039-1.692s2.01-1.686,2.127-1.581-.606,1.09-1.787,2.014A4.928,4.928,0,0,1,1214.228,342.312Z"/><path class="b" d="M1223.945,336.064c-.157.018-.368-.807-.743-1.767s-.766-1.716-.638-1.807.753.57,1.151,1.609S1224.091,336.052,1223.945,336.064Z"/><path class="b" d="M1221.368,321.285c-.088.123-.716-.175-1.4-.668s-1.169-.991-1.081-1.114.716.175,1.4.667S1221.457,321.162,1221.368,321.285Z"/><path class="b" d="M1244.017,298.125c.09.122-.521.726-1.365,1.349s-1.6,1.029-1.692.906.521-.726,1.365-1.349S1243.927,298,1244.017,298.125Z"/><path class="b" d="M1247.43,307.457c.014.147-.943.348-2.127.218s-2.077-.526-2.032-.667.964,0,2.091.12S1247.419,307.3,1247.43,307.457Z"/><path class="b" d="M1232.758,309.549c.033.145-.853.463-2,.537s-2.066-.119-2.053-.266.916-.207,2.016-.283S1232.726,309.4,1232.758,309.549Z"/><path class="b" d="M1234.019,300.727c-.011.146-.907.17-1.887-.284s-1.548-1.143-1.444-1.246.78.341,1.674.746S1234.038,300.571,1234.019,300.727Z"/><path class="b" d="M1248.69,317.475c-.081.128-1-.3-2.048-.965s-1.837-1.3-1.756-1.43,1,.3,2.049.965S1248.771,317.346,1248.69,317.475Z"/><rect class="b" width="78.279" height="13.874" transform="translate(1206.211 343.661)"/><path class="b" d="M1212.057,354.782l9.519,41.46h46.654l10.414-41.46Z"/><path class="b" d="M1284.447,357.552c0,.152-17.657.276-39.433.276s-39.436-.124-39.436-.276,17.653-.275,39.436-.275S1284.447,357.4,1284.447,357.552Z"/><path class="b" d="M1240.914,309.852c-.129.081-.664-.543-1.195-1.392s-.857-1.6-.728-1.684.664.542,1.2,1.392S1241.043,309.772,1240.914,309.852Z"/><path class="b" d="M1240.943,321.015c-.145-.048.039-.991.409-2.107s.788-1.981.932-1.933-.039.991-.41,2.107S1241.087,321.063,1240.943,321.015Z"/><path class="b" d="M1244.763,332.734c-.137.065-.722-.872-1.306-2.093a5.706,5.706,0,0,1-.81-2.33c.137-.065.722.872,1.306,2.093A5.668,5.668,0,0,1,1244.763,332.734Z"/><path class="b" d="M1236.5,342.162c-.115-.1.352-.826,1.043-1.622s1.344-1.36,1.459-1.261-.352.826-1.043,1.622S1236.611,342.262,1236.5,342.162Z"/><path class="b" d="M1234.761,325.044c-.027.149-.78.141-1.683-.018s-1.613-.41-1.586-.559.779-.142,1.682.017S1234.787,324.894,1234.761,325.044Z"/></g><path class="e" d="M1275.7,395.912c0,.144-89.309.261-199.451.261-110.181,0-199.471-.117-199.471-.261s89.29-.26,199.471-.26C1186.39,395.652,1275.7,395.768,1275.7,395.912Z"/><circle class="f" cx="46.2" cy="46.2" r="46.2" transform="translate(918.426 102.67) rotate(-45)"/><path class="e" d="M1027.093,133.819c.009.047-.493.09-1.3.445a6.064,6.064,0,0,0-2.7,2.447,5.765,5.765,0,0,0-.788,2.384,5.013,5.013,0,0,0,.575,2.786,5.476,5.476,0,0,0,10.232-.887,5.012,5.012,0,0,0,.087-2.843,5.754,5.754,0,0,0-1.187-2.214,6.06,6.06,0,0,0-3.079-1.945c-.854-.212-1.356-.168-1.356-.215a1.132,1.132,0,0,1,.36-.039,2.222,2.222,0,0,1,.438.011,3.5,3.5,0,0,1,.595.081,6.144,6.144,0,0,1,4.57,4.227,5.328,5.328,0,0,1-.053,3.055,6.236,6.236,0,0,1-1.839,2.83,5.514,5.514,0,0,1-6.82.591,6.228,6.228,0,0,1-2.3-2.471,5.329,5.329,0,0,1-.578-3,6.144,6.144,0,0,1,3.775-4.95,3.41,3.41,0,0,1,.572-.182,2.209,2.209,0,0,1,.43-.086A1.17,1.17,0,0,1,1027.093,133.819Z"/><path class="e" d="M1037.02,146.539c0,.023-.246.045-.648.222a3.022,3.022,0,0,0-1.346,1.22,2.864,2.864,0,0,0-.394,1.19,2.5,2.5,0,0,0,.287,1.39,2.732,2.732,0,0,0,5.105-.442,2.5,2.5,0,0,0,.044-1.419,2.857,2.857,0,0,0-.593-1.1,3.019,3.019,0,0,0-1.536-.971c-.426-.106-.677-.084-.676-.107a.551.551,0,0,1,.179-.02,1.115,1.115,0,0,1,.219.006,1.772,1.772,0,0,1,.3.04,3.065,3.065,0,0,1,2.281,2.109,2.657,2.657,0,0,1-.027,1.525,3.1,3.1,0,0,1-.917,1.412,2.751,2.751,0,0,1-3.4.294,3.1,3.1,0,0,1-1.146-1.232,2.665,2.665,0,0,1-.289-1.5,3.07,3.07,0,0,1,1.884-2.47,1.774,1.774,0,0,1,.285-.091,1.158,1.158,0,0,1,.215-.043A.56.56,0,0,1,1037.02,146.539Z"/><path class="e" d="M1029.808,105s-.014-.254-.021-.748-.012-1.235-.021-2.19q0-.723-.01-1.612c-.031-.592-.123-1.237-.19-1.936s-.153-1.453-.238-2.258a7.972,7.972,0,0,0-.2-1.235c-.087-.422-.178-.857-.27-1.3a43.86,43.86,0,0,0-4.464-12.469,45.767,45.767,0,0,0-10.99-13.6l-1.906-1.577c-.672-.492-1.384-.947-2.086-1.431l-1.065-.721a8.962,8.962,0,0,0-1.1-.685l-2.32-1.262c-.392-.21-.78-.432-1.18-.636l-1.247-.527-2.53-1.071c-.861-.334-1.768-.567-2.661-.86l-1.355-.421c-.227-.067-.451-.148-.683-.205l-.7-.143a42.671,42.671,0,0,0-5.756-.965c-.986-.084-1.976-.231-2.979-.267l-3.038,0c-.51.01-1.023-.02-1.535.022l-1.539.157c-1.027.117-2.07.183-3.105.343a48.546,48.546,0,0,0-6.2,1.481l-1.546.48c-.258.082-.52.155-.775.246l-.752.317-3.03,1.277c-.993.475-1.951,1.038-2.937,1.558-.484.276-1,.506-1.46.821l-1.4.941a51.686,51.686,0,0,0-5.416,4.149l-2.456,2.445-.618.614c-.193.217-.374.446-.561.669l-1.119,1.349-1.124,1.355-1,1.459-1,1.469-.5.737c-.151.255-.287.52-.431.78L942.579,82.7l-1.414,3.327a48.963,48.963,0,0,0-3.094,14.318,48.991,48.991,0,0,0,1.627,14.563q.537,1.734,1.07,3.454.7,1.659,1.391,3.307l.35.821.424.784.844,1.562.845,1.553.981,1.462.977,1.456.491.723.552.674,2.2,2.68a51.551,51.551,0,0,0,4.969,4.677l1.3,1.077c.429.362.917.642,1.37.966.928.616,1.824,1.274,2.765,1.847l2.885,1.577.716.391c.245.117.5.215.747.324l1.49.634a48.561,48.561,0,0,0,6.015,2.1c1.014.264,2.045.436,3.055.656l1.515.312c.506.092,1.019.115,1.525.176l3.023.309c1,.066,2,.02,2.991.035a42.684,42.684,0,0,0,5.825-.378l.713-.072c.235-.033.467-.09.7-.135l1.39-.281c.919-.2,1.845-.342,2.735-.587l2.625-.81,1.294-.4,1.239-.513,2.435-1.021a8.932,8.932,0,0,0,1.167-.57l1.133-.61c.747-.41,1.5-.791,2.22-1.213l2.055-1.376a45.768,45.768,0,0,0,12.307-12.419c.362-.537.731-1.056,1.07-1.581l.886-1.615q.433-.791.852-1.553c.136-.256.287-.5.405-.758s.222-.518.331-.774l1.254-2.929c.372-.941.613-1.878.9-2.743q.205-.652.4-1.269a7.978,7.978,0,0,0,.323-1.209q.249-1.188.465-2.221c.137-.69.294-1.321.384-1.907l.173-1.6q.159-1.423.242-2.176c.057-.491.1-.741.1-.741s-.01.252-.053.744-.113,1.231-.2,2.182q-.069.722-.153,1.609c-.084.589-.234,1.223-.366,1.916s-.287,1.436-.447,2.232a7.807,7.807,0,0,1-.315,1.216l-.393,1.276c-.284.87-.52,1.812-.888,2.76l-1.242,2.948q-.162.385-.329.779c-.117.26-.267.506-.4.764l-.849,1.565-.883,1.626c-.337.53-.706,1.053-1.067,1.595a45.887,45.887,0,0,1-12.335,12.535l-2.065,1.391c-.722.427-1.481.812-2.232,1.228l-1.139.617a9.13,9.13,0,0,1-1.174.577l-2.45,1.035c-.414.171-.825.355-1.246.519l-1.3.4-2.643.821c-.9.25-1.828.394-2.754.6l-1.4.287c-.235.045-.468.1-.706.137l-.718.074a42.838,42.838,0,0,1-5.87.392c-1-.013-2,.034-3.014-.03l-3.048-.307c-.51-.06-1.028-.083-1.537-.175l-1.529-.312c-1.019-.22-2.058-.392-3.081-.657a48.669,48.669,0,0,1-6.069-2.109l-1.505-.637c-.25-.109-.506-.209-.753-.326l-.723-.394-2.912-1.588c-.949-.577-1.854-1.238-2.792-1.86-.457-.326-.949-.609-1.382-.973l-1.309-1.085a51.755,51.755,0,0,1-5.018-4.715l-2.219-2.7-.559-.679-.495-.729-.987-1.468-.991-1.475-.854-1.567-.852-1.577-.428-.791-.353-.828-1.406-3.337q-.539-1.736-1.081-3.485a49.331,49.331,0,0,1-1.644-14.7,49.3,49.3,0,0,1,3.124-14.452q.717-1.685,1.429-3.356.87-1.6,1.734-3.178c.147-.262.284-.53.437-.787l.505-.744,1.007-1.482,1.008-1.471,1.135-1.367,1.13-1.361c.189-.225.372-.455.567-.674l.623-.62,2.481-2.465a51.872,51.872,0,0,1,5.468-4.181l1.412-.948c.468-.317.985-.55,1.473-.828.995-.523,1.962-1.09,2.965-1.568l3.058-1.284.758-.319c.258-.092.522-.165.782-.248l1.561-.482a48.856,48.856,0,0,1,6.251-1.485c1.044-.16,2.1-.226,3.132-.342l1.551-.156c.516-.04,1.034-.01,1.548-.019l3.062,0c1.011.038,2.009.187,3,.274a43.079,43.079,0,0,1,5.8.984l.708.146c.233.058.459.139.688.208l1.364.426c.9.3,1.813.535,2.679.873l2.547,1.084,1.254.535c.4.205.794.43,1.188.642l2.333,1.278a8.966,8.966,0,0,1,1.11.692l1.07.729c.706.489,1.421.949,2.1,1.446q.968.807,1.914,1.593A45.9,45.9,0,0,1,1024.6,81.141a43.723,43.723,0,0,1,4.416,12.549q.133.673.262,1.31a8,8,0,0,1,.19,1.241q.117,1.212.219,2.266c.061.7.146,1.349.17,1.943q0,.891-.01,1.616-.015,1.434-.022,2.193C1029.823,104.752,1029.808,105,1029.808,105Z"/><path class="e" d="M996.888,102.69a4.3,4.3,0,1,0,4.183-4.418A4.3,4.3,0,0,0,996.888,102.69Z"/><path class="e" d="M979.679,103.158a4.3,4.3,0,1,0,4.183-4.417A4.3,4.3,0,0,0,979.679,103.158Z"/><path class="e" d="M962.455,101.476a4.3,4.3,0,1,0,5.831-1.734A4.3,4.3,0,0,0,962.455,101.476Z"/><path d="M1135.685,179.28c-1.214-3.4-2.985-6.754-2.871-10.362.143-4.513,3.2-8.42,4.073-12.851.973-4.954-.859-9.962-1.863-14.91-1.456-7.179-1.168-14.576-1.317-21.9s-.79-14.829-3.923-21.45-9.217-12.254-16.5-13.027l-55.921,37.556c-1.172,13.611-9.743,26.723-6.693,40.04.611,2.667,1.68,5.223,2.149,7.919a36.515,36.515,0,0,1,.126,8.574q-.391,6.1-.782,12.208c-.118,1.843-.2,3.826.786,5.386,1.111,1.754,3.263,2.488,5.257,3.067a194.765,194.765,0,0,0,66.076,7.354c3.4-.208,7.069-.618,9.584-2.919,2.135-1.953,3.02-4.918,3.453-7.779A34.966,34.966,0,0,0,1135.685,179.28Z"/><path d="M1056.96,116.125c2.728-11.6,5.523-23.669,15.132-30.711,8.562-6.275,18.135-7.791,28.721-7,5.212.389,11.028,2.989,15.491,5.71,6.118,3.731,8.526,10.974,11.322,17.572,5.6,13.22,4.264,30.831.024,35.6l-55.359,26.97c-9.47-5.327-15.838-7.876-18.044-18.516C1052.745,138.5,1055.265,123.328,1056.96,116.125Z"/><path class="g" d="M1072.921,96.2l34.58-8.992c11.085-1.249,18.554,12.361,19.332,23.49.864,12.363,1.43,27.492.028,36.731-2.821,18.578-17.028,21.037-17.028,21.037-.005-.063-.042.277-.111,5.791l.1,12.412c-4.566,15.058-19.82,13.243-38.88,5.421l-3.816-89.23A6.529,6.529,0,0,1,1072.921,96.2Z"/><path class="e" d="M1119.762,126.764a2.38,2.38,0,0,1-2.279,2.417,2.276,2.276,0,0,1-2.468-2.129,2.381,2.381,0,0,1,2.276-2.418A2.278,2.278,0,0,1,1119.762,126.764Z"/><path class="e" d="M1123.6,120.827c-.293.313-2.1-1.009-4.666-.985-2.559-.013-4.43,1.318-4.71,1.006-.137-.138.16-.7.974-1.3a6.534,6.534,0,0,1,3.767-1.189,6.272,6.272,0,0,1,3.717,1.172C1123.478,120.128,1123.748,120.687,1123.6,120.827Z"/><path class="e" d="M1097.177,126.764a2.379,2.379,0,0,1-2.278,2.417,2.276,2.276,0,0,1-2.468-2.129,2.381,2.381,0,0,1,2.276-2.418A2.277,2.277,0,0,1,1097.177,126.764Z"/><path class="e" d="M1098.433,120.515c-.294.312-2.108-1.01-4.667-.985-2.559-.013-4.43,1.317-4.709,1.006-.137-.139.156-.7.974-1.3a6.532,6.532,0,0,1,3.767-1.19,6.277,6.277,0,0,1,3.717,1.172C1098.3,119.815,1098.576,120.375,1098.433,120.515Z"/><path class="e" d="M1107.856,138.175c-.012-.145,1.578-.431,4.155-.779.654-.072,1.272-.206,1.379-.653a3.321,3.321,0,0,0-.45-1.935q-.937-2.368-1.968-4.967c-2.733-7.072-4.718-12.889-4.432-13s2.734,5.537,5.468,12.609q.987,2.616,1.887,5a3.783,3.783,0,0,1,.357,2.564,1.644,1.644,0,0,1-1.069.964,4.5,4.5,0,0,1-1.11.162C1109.478,138.3,1107.867,138.321,1107.856,138.175Z"/><path class="h" d="M1109.833,168.47a47.215,47.215,0,0,1-24.9-6.46s6.233,12.944,24.8,11.081Z"/><path class="g" d="M1099.429,143.013a4.113,4.113,0,0,1,3.408-1.887,5.349,5.349,0,0,1,4.892,2.382,3.331,3.331,0,0,1,.233,2.4c-.177.408-.039.207-.354.489a9.355,9.355,0,0,1-3.81,2.4,4.017,4.017,0,0,1-4.253-1.533A4.1,4.1,0,0,1,1099.429,143.013Z"/><path class="e" d="M1099.87,140.094c.416-.03.456,2.75,2.86,4.693s5.359,1.6,5.386,1.989c.041.174-.653.548-1.9.6a6.916,6.916,0,0,1-4.493-1.5,6.024,6.024,0,0,1-2.22-3.938C1099.378,140.773,1099.679,140.08,1099.87,140.094Z"/><path class="e" d="M1099.7,111.936c-.207.711-2.78.546-5.755,1.1-2.987.495-5.348,1.529-5.786.931-.2-.287.183-.968,1.117-1.7a10.189,10.189,0,0,1,8.793-1.549C1099.2,111.089,1099.792,111.6,1099.7,111.936Z"/><path class="e" d="M1123.616,114.892c-.6.484-2.432-.455-4.76-.9-2.314-.516-4.378-.382-4.727-1.062-.147-.326.266-.844,1.226-1.233a7.3,7.3,0,0,1,4.045-.248,7.213,7.213,0,0,1,3.6,1.828C1123.718,114.013,1123.884,114.651,1123.616,114.892Z"/><path class="e" d="M1107.086,85.2c.027.134.048.27.074.4l-.065.025C1107.092,85.486,1107.089,85.342,1107.086,85.2Z"/><path d="M1068.311,172.262c4.167-1.133,7.016-5.168,8.061-9.357s.629-8.584.347-12.893-.4-8.772,1.184-12.79c1.07-2.713,2.888-5.138,3.537-7.981,1.119-4.9-1.414-10.168.08-14.963,1.043-3.35,3.841-5.79,6.1-8.478a31.031,31.031,0,0,0,7.188-19.642,40.237,40.237,0,0,0-16.923,4.292,26.559,26.559,0,0,0-12.009,12.417c-2.444,5.545-2.547,11.8-2.611,17.856l-.534,50.754"/><path class="i" d="M1093.725,89.8c1.664,2.951,4.849,4.735,8.071,5.779s6.617,1.5,9.821,2.6a26.161,26.161,0,0,1,17.174,22.351,25.346,25.346,0,0,0-32.429-34.7"/><path d="M1061.58,107.88c1.147-7.7,2.495-8.368.406-12.864s-9.752-8.824-14.694-8.428-9.416,4.728-9.484,9.685c-.073,5.369,4.494,9.749,9.38,11.976a11.407,11.407,0,0,0-3.413,2.076,3.875,3.875,0,0,0-1.2,3.637c.534,1.918,2.986,2.734,4.9,2.192s3.394-2.028,4.779-3.457c-.419,1.855,1.433,3.68,3.334,3.689a5.435,5.435,0,0,0,4.508-3.031,15.992,15.992,0,0,0,1.483-5.475"/><path class="j" d="M1056.113,117.881a3.216,3.216,0,0,1-.038-.935c.005-.6.063-1.471.181-2.54a39.429,39.429,0,0,1,5.385-15.816c.56-.919,1.044-1.643,1.408-2.123s.57-.739.6-.718c.07.048-.659,1.155-1.689,3.024a47.016,47.016,0,0,0-5.339,15.682C1056.3,116.563,1056.2,117.886,1056.113,117.881Z"/><path class="f" d="M1059.68,104.874a12.692,12.692,0,0,1,1.65.12,30.132,30.132,0,0,0,4.483.029A28.065,28.065,0,0,0,1089.3,89.44a30.112,30.112,0,0,0,1.716-4.142,12.743,12.743,0,0,1,.531-1.567,1.37,1.37,0,0,1-.058.427c-.061.274-.127.685-.279,1.2a25.129,25.129,0,0,1-1.579,4.246,27.5,27.5,0,0,1-23.8,15.789,25.166,25.166,0,0,1-4.525-.2c-.531-.059-.937-.158-1.213-.208A1.327,1.327,0,0,1,1059.68,104.874Z"/><path class="f" d="M1088.461,105.694a6.149,6.149,0,0,1-1.013.8,13.356,13.356,0,0,1-1.261.842c-.507.305-1.07.68-1.74,1.009a32.36,32.36,0,0,1-4.8,2.085,33.7,33.7,0,0,1-12.654,1.756,32.283,32.283,0,0,1-5.189-.7c-.734-.133-1.378-.341-1.949-.5a13.2,13.2,0,0,1-1.443-.468,6.22,6.22,0,0,1-1.193-.5c.034-.1,1.759.548,4.658,1.1a35.708,35.708,0,0,0,5.138.581,35.593,35.593,0,0,0,12.48-1.731,35.851,35.851,0,0,0,4.786-1.958C1086.918,106.7,1088.4,105.607,1088.461,105.694Z"/><path class="f" d="M1131.5,118.048c-.049,0-.049-.742-.167-2.071a28.261,28.261,0,0,0-1.049-5.528,22.163,22.163,0,0,0-3.782-7.358,24.992,24.992,0,0,0-7.965-6.23c-3.233-1.656-6.5-2.871-9.425-4.075a55.131,55.131,0,0,1-7.6-3.633,28.887,28.887,0,0,1-2.692-1.814c-.739-.607-1.354-1.158-1.845-1.614l-1.033-1.154a2.034,2.034,0,0,1-.332-.423,2.085,2.085,0,0,1,.41.353l1.094,1.077c.509.429,1.136.951,1.881,1.528a31.275,31.275,0,0,0,2.7,1.73,59.083,59.083,0,0,0,7.6,3.505c2.932,1.178,6.211,2.381,9.486,4.058a25.019,25.019,0,0,1,8.1,6.394,21.969,21.969,0,0,1,3.758,7.553,25.393,25.393,0,0,1,.9,5.618c.025.671.03,1.192.01,1.546A2.106,2.106,0,0,1,1131.5,118.048Z"/><path class="f" d="M1139.163,315.77l7.553,12.755L1086.486,361.8l2.155-46.03,11.627-10.215Z"/><path class="k" d="M1010.263,250.1s9.233-53.121,11.186-55.855,9.764-8.2,9.764-8.2l19.528,47.214-2.727,18.058Z"/><path class="k" d="M1066.119,173.274c-1.562.195-27.215,7.023-34.906,12.772l16.052,65.045,5.077,58.974,54.092,3.906,35.7,6.821-3.094-6.756s1.37,2.474.589-2.6-12.693-19.918-12.107-23.628,5.077-9.764,6.444-17.185a182.136,182.136,0,0,0,1.393-22.571c.243-25.129-.745-61.693-.745-61.693l-24.1-9.053c-8.136,10.248-29.864,8.111-40.457-5.723Z"/><path class="k" d="M1134.207,186.234s13.822,6.649,16.509,16.629,11.9,47.4,11.9,47.4-21.112,1.317-27.253-2.22S1134.207,186.234,1134.207,186.234Z"/><path class="k" d="M1048.394,252.7a3.274,3.274,0,0,1-.069-.665c-.025-.489-.057-1.12-.1-1.9-.125-1.649-.355-4.032-.775-6.961a202.785,202.785,0,0,0-4.8-22.6,148.676,148.676,0,0,0-7.553-21.822c-.666-1.316-1.2-2.547-1.786-3.563s-1.068-1.906-1.526-2.591l-1.1-1.552a3.206,3.206,0,0,1-.358-.565,3.122,3.122,0,0,1,.439.5l1.187,1.5c.487.673.984,1.562,1.612,2.563s1.173,2.233,1.865,3.548a135.9,135.9,0,0,1,7.722,21.842,179.415,179.415,0,0,1,4.666,22.691c.375,2.945.549,5.343.613,7,0,.787,0,1.421,0,1.912A3.192,3.192,0,0,1,1048.394,252.7Z"/><path class="k" d="M1046.278,244.229a6.967,6.967,0,0,1-1.348.182c-.871.089-2.135.166-3.7.216a82.409,82.409,0,0,1-24.208-2.921c-1.507-.421-2.717-.8-3.541-1.09a6.847,6.847,0,0,1-1.266-.5,6.689,6.689,0,0,1,1.325.3c.841.234,2.062.554,3.575.928a98.565,98.565,0,0,0,24.11,2.909c1.558,0,2.821-.024,3.693-.051A6.765,6.765,0,0,1,1046.278,244.229Z"/><path class="k" d="M1141.365,223.608c-.8-4.911-3.352-9.446-3.818-14.4-.362-3.848.559-7.684.974-11.527a44.551,44.551,0,0,0-7.527-29.751l-20.262,5.213c-2.616,4.043-1.2,9.455,1,13.737s5.176,8.4,5.58,13.2c.431,5.1-2.155,10.079-1.889,15.2.293,5.637,3.933,10.448,6.268,15.587s2.968,12.14-1.5,15.593a9.846,9.846,0,0,0,8.835-5.67q.081,2.565.162,5.128A21.321,21.321,0,0,0,1141.365,223.608Z"/><path class="k" d="M1038.6,210.39c.012.144-4.735.656-10.6,1.144s-10.634.769-10.646.625,4.734-.655,10.6-1.144S1038.585,210.247,1038.6,210.39Z"/><path class="k" d="M1115.828,211.5c.006.144-16.5.951-36.865,1.8s-36.884,1.428-36.89,1.284,16.5-.951,36.869-1.8S1115.822,211.352,1115.828,211.5Z"/><path class="k" d="M1151.338,208.179c-.038.152-2.836-.5-6.349-.813-3.512-.326-6.382-.183-6.392-.34a27.382,27.382,0,0,1,12.741,1.153Z"/><path class="g" d="M1059.66,406.9c-2.03.35-58.027,12.361-58.027,12.361l-7.705-24.975,54.888-21.727Z"/><path class="l" d="M1006.033,389.5s-8.964,21.877,6.231,27.736l-4.694,6.234L968.86,447.8a5.924,5.924,0,0,1-7.756-1.093,5.717,5.717,0,0,1-.679-6.13c5.26-10.586,24.8-49.43,28.8-50.342l10.4-3.081c2.156-.639,5.013.582,6.412,2.344Z"/><g class="m"><path class="n" d="M960.518,445.818l32.3-56.711-2.26.708c-2.52.543-3.159,1.914-4.371,3.564-3.591,4.888-11.06,17.661-25.819,47.036a5.718,5.718,0,0,0,.145,5.4Z"/></g><g class="m"><path class="b" d="M1001.494,393.28a3.465,3.465,0,0,1-4.036,2.256,3.331,3.331,0,0,1-2.273-3.98c.477-1.634,2.7-2.988,4.287-2.368s2.76,2.931,1.9,4.4"/></g><path class="e" d="M980.011,426.328c-.053.348,3.118.677,5.614,3.38,2.576,2.627,2.747,5.81,3.1,5.774.146.006.349-.8.134-2.1a9.13,9.13,0,0,0-6.737-7.08C980.827,426.019,980.013,426.183,980.011,426.328Z"/><path class="e" d="M974.056,432.365c-.151.325,2.12,1.495,3.774,4.007,1.709,2.475,1.943,5.017,2.3,5,.32.07.649-2.853-1.285-5.686C976.945,432.832,974.113,432.042,974.056,432.365Z"/><path class="e" d="M986.954,416.389c-.175.329,3.326,2.111,6.24,5.791,2.973,3.637,3.963,7.437,4.322,7.337.311,0-.188-4.2-3.365-8.106C991.015,417.472,987.023,416.085,986.954,416.389Z"/><path class="e" d="M999.508,411.478c-.276.243,1.878,2.8,3.217,6.6,1.391,3.774,1.369,7.12,1.736,7.131.307.066.9-3.488-.581-7.547C1002.431,413.586,999.7,411.232,999.508,411.478Z"/><path class="e" d="M1003.516,420.226a4.836,4.836,0,0,0,1.907-.918,14.7,14.7,0,0,0,4.118-4.066,6.508,6.508,0,0,0,1.451-3.92,2.3,2.3,0,0,0-1.662-2.058,3.75,3.75,0,0,0-2.645.393,8.1,8.1,0,0,0-3.325,9.767A9.391,9.391,0,0,0,1012,425.3a3.256,3.256,0,0,0,2.47-1.126,2.259,2.259,0,0,0-.043-2.648,7.994,7.994,0,0,0-3.409-2.367,16.382,16.382,0,0,0-5.62-1.354,4.992,4.992,0,0,0-2.109.139c-.038.242,3.088-.028,7.365,2a7.479,7.479,0,0,1,2.921,2.137,1.2,1.2,0,0,1,.032,1.443,2.238,2.238,0,0,1-1.667.645,8.381,8.381,0,0,1-7.434-5.181,7.029,7.029,0,0,1,2.7-8.332,2.722,2.722,0,0,1,1.835-.352,1.246,1.246,0,0,1,.933,1.122,5.881,5.881,0,0,1-1.168,3.342C1006.276,418.766,1003.351,420.032,1003.516,420.226Z"/><path class="g" d="M1020.4,250.508a290.272,290.272,0,0,0,2.3,32.435c2.111,14.539,5.123,22.792,8.511,26.822s7.035,3.263,7.035,3.263l33.778-51.82-10.747-5.566-13.435,14.586.17-18.91Z"/><path class="g" d="M1091.854,362.2c-.264,2.042-5.294,59.092-5.294,59.092h-26.136l-4.582-58.854Z"/><path class="l" d="M1058.793,408.669s20.821,14.778,30.9,1.986l2.635,6.2,11.84,44.162a5.926,5.926,0,0,1-3.331,7.09,5.715,5.715,0,0,1-6.058-1.159c-8.565-8.146-39.922-38.272-39.615-42.358l.121-10.844a5.514,5.514,0,0,1,3.509-5.075Z"/><g class="m"><path class="n" d="M1099.814,468.4l-44.667-47.587.01,2.368c-.223,2.568.9,3.582,2.117,5.227,3.613,4.873,13.616,15.775,37.334,38.538a5.722,5.722,0,0,0,5.206,1.454Z"/></g><g class="m"><path class="b" d="M1061.69,413.76a3.466,3.466,0,0,1,.967,4.522,3.332,3.332,0,0,1-4.474,1c-1.42-.937-2.059-3.461-1-4.794s3.614-1.773,4.769-.522"/></g><path class="e" d="M1086.937,444.031c.317.153,1.566-2.78,4.884-4.368,3.27-1.688,6.362-.912,6.431-1.258.048-.137-.661-.569-1.97-.748a9.132,9.132,0,0,0-8.752,4.351C1086.883,443.16,1086.8,443.986,1086.937,444.031Z"/><path class="e" d="M1090.95,451.5c.267.241,2.053-1.584,4.941-2.424,2.87-.9,5.368-.378,5.456-.726.161-.286-2.535-1.461-5.812-.449C1092.248,448.878,1090.658,451.351,1090.95,451.5Z"/><path class="e" d="M1079.486,434.466c.263.264,3-2.556,7.374-4.255,4.351-1.769,8.274-1.594,8.284-1.968.09-.3-4.067-1.058-8.737.826C1081.718,430.9,1079.216,434.311,1079.486,434.466Z"/><path class="e" d="M1078.494,421.023c.151.335,3.234-.969,7.252-1.13,4.016-.217,7.207.791,7.326.444.153-.275-3.067-1.893-7.384-1.671C1081.371,418.851,1078.316,420.764,1078.494,421.023Z"/><path class="e" d="M1088.035,419.772a4.843,4.843,0,0,0-.315-2.093,14.705,14.705,0,0,0-2.671-5.134,6.521,6.521,0,0,0-3.318-2.543,2.3,2.3,0,0,0-2.457.982,3.754,3.754,0,0,0-.4,2.644,8.1,8.1,0,0,0,8.353,6.056,9.393,9.393,0,0,0,8.163-6.526,3.261,3.261,0,0,0-.348-2.693,2.259,2.259,0,0,0-2.543-.74,8.018,8.018,0,0,0-3.267,2.56,16.375,16.375,0,0,0-2.95,4.971,4.97,4.97,0,0,0-.489,2.057c.22.108.883-2.959,4.084-6.448a7.484,7.484,0,0,1,2.9-2.161,1.2,1.2,0,0,1,1.388.395,2.236,2.236,0,0,1,.125,1.783,8.384,8.384,0,0,1-7.142,5.577,7.03,7.03,0,0,1-7.165-5.04,2.711,2.711,0,0,1,.2-1.857,1.245,1.245,0,0,1,1.347-.561,5.889,5.889,0,0,1,2.849,2.1C1087.454,416.7,1087.8,419.872,1088.035,419.772Z"/><path class="g" d="M1157.766,250.46s-2.252,48.749-5.9,56.426-8.43,11.7-12.084,10.838-37.195-17.458-42.5-34.408l10.955-11.338s20.164,12.273,23.165,12.171l3.96-36.1Z"/><path class="g" d="M1143.84,296.331c-.091.012-.187-1.064-.743-2.681a13.871,13.871,0,0,0-9.207-8.876c-1.636-.5-2.714-.553-2.706-.644a1.965,1.965,0,0,1,.76-.031,11.005,11.005,0,0,1,2.045.32,13.153,13.153,0,0,1,9.459,9.119,11.048,11.048,0,0,1,.4,2.032A1.984,1.984,0,0,1,1143.84,296.331Z"/><path class="g" d="M1047.963,269.624a27.9,27.9,0,0,1-2.343,2.407c-1.465,1.464-3.443,3.528-5.492,5.929s-3.771,4.686-4.984,6.364a27.764,27.764,0,0,1-2.005,2.7,3.091,3.091,0,0,1,.4-.813c.286-.507.728-1.223,1.3-2.092a67.692,67.692,0,0,1,10.524-12.35c.768-.7,1.4-1.252,1.86-1.615A3.052,3.052,0,0,1,1047.963,269.624Z"/><path class="f" d="M1025.827,379.465s108.981-47.954,113.842-50.655,21.608-9.453,29.711-4.862,16.475,17.556,12.154,31.6-24.039,36.193-30.791,40.244-60.771,2.161-60.771,2.161L1038.151,413.4Z"/><path class="o" d="M1167.183,371.732a5.1,5.1,0,0,1-.677.512c-.459.312-1.116.807-2.014,1.364A76.743,76.743,0,0,1,1156.7,378a107.986,107.986,0,0,1-12.255,5.093c-4.714,1.659-9.99,3.2-15.567,4.643-11.171,2.836-21.352,5.073-28.591,7.191-3.625,1.033-6.533,1.956-8.53,2.633l-2.3.781a5.258,5.258,0,0,1-.813.243,5.157,5.157,0,0,1,.777-.342c.517-.2,1.274-.518,2.269-.873,1.979-.737,4.876-1.715,8.494-2.8,7.227-2.212,17.41-4.51,28.563-7.341,5.568-1.442,10.834-2.964,15.541-4.592a114.3,114.3,0,0,0,12.251-4.971,88.734,88.734,0,0,0,7.849-4.231c.912-.53,1.585-1,2.063-1.28A5.313,5.313,0,0,1,1167.183,371.732Z"/><path class="o" d="M1171.49,353.933a8.022,8.022,0,0,1,.269,2.416,22.937,22.937,0,0,1-2.793,11.306,8.043,8.043,0,0,1-1.364,2.012,31.157,31.157,0,0,0,3.888-15.734Z"/><path class="o" d="M1145.854,326.02a2.413,2.413,0,0,1-.515.269l-1.516.676-5.576,2.469c-4.7,2.107-11.121,5.166-18.173,8.636s-13.458,6.588-18.15,8.723c-2.345,1.07-4.252,1.915-5.582,2.47l-1.535.633a2.489,2.489,0,0,1-.549.188,2.385,2.385,0,0,1,.507-.284l1.494-.722,5.509-2.618c4.648-2.219,11.02-5.385,18.077-8.858s13.511-6.481,18.254-8.505c2.37-1.013,4.3-1.807,5.647-2.32.631-.238,1.145-.431,1.553-.586A2.458,2.458,0,0,1,1145.854,326.02Z"/><path class="e" d="M1136.97,206.853a10.876,10.876,0,0,1,.348,1.678c.2,1.086.424,2.667.644,4.628a99.821,99.821,0,0,1-1.4,30.7c-.4,1.933-.767,3.487-1.063,4.55a10.639,10.639,0,0,1-.5,1.639,10.893,10.893,0,0,1,.3-1.686c.235-1.075.547-2.638.9-4.572a113.933,113.933,0,0,0,1.4-30.6c-.173-1.959-.342-3.543-.478-4.635A10.717,10.717,0,0,1,1136.97,206.853Z"/><path class="b" d="M1108.8,242.623l-12.816,29.171s-51.414,15.8-56.48,20.714h-3.668l28.853-33.828s22.854-12.831,29.262-14.6,13.06-2.832,13.06-2.832Z"/><path class="p" d="M1068.506,260.849s17.515-10.2,25.653-12.8a142.225,142.225,0,0,1,15.661-3.972l-12.7,28.8-33.533,7.4Z"/><path class="g" d="M1084.585,261.4s-1.372-2.654-.528-3.92,10.012-2.466,15.784-3.166,9.335.888,8.962,6.142a7.192,7.192,0,0,1,1.947,5.464c-.316,3.271-1.947,3.8-1.947,3.8s1.745,4.009,0,6.12-2.424,1.793-2.424,1.793a7.1,7.1,0,0,1-2.388,4.167c-2,1.53-6.351,2.333-6.351,2.333l-10.8-22.163Z"/><path class="q" d="M1105.168,260.844a13.2,13.2,0,0,1-2.673.445c-1.66.2-3.96.415-6.505.569s-4.856.216-6.528.219a13.3,13.3,0,0,1-2.707-.119,14.735,14.735,0,0,1,2.7-.25l6.507-.37,6.5-.416A14.835,14.835,0,0,1,1105.168,260.844Z"/><path class="q" d="M1104.66,268.928a91.578,91.578,0,0,1-13.794-.731,91.913,91.913,0,0,1,13.794.731Z"/><path class="q" d="M1104.234,275.585a16.686,16.686,0,0,1-10.286-1.331c.052-.148,2.266.612,5.1.969C1101.887,275.6,1104.221,275.429,1104.234,275.585Z"/><path class="g" d="M1108.789,269.681a2.442,2.442,0,0,1,.409.82,10.421,10.421,0,0,1,.542,2.437,27.256,27.256,0,0,1,.1,3.685,11.3,11.3,0,0,1-.192,2.2,4.631,4.631,0,0,1-1.136,2.144,10.234,10.234,0,0,1-3.886,2.4,15.992,15.992,0,0,1-3.593.9,10.776,10.776,0,0,1-2.494.057,2.4,2.4,0,0,1-.9-.19,22.147,22.147,0,0,0,3.336-.231,17.467,17.467,0,0,0,3.474-.982,10.2,10.2,0,0,0,3.673-2.3,4.179,4.179,0,0,0,1.025-1.908,11.484,11.484,0,0,0,.209-2.1,32.919,32.919,0,0,0,.016-3.637A19.341,19.341,0,0,0,1108.789,269.681Z"/><path class="f" d="M1070.527,260.589s3.285-3.754,6.582-3.962,10.8-1.437,14.108,4.822,7.5,25.266,7.614,32.159-6.227,96.269-6.227,96.269h-36.715l-3.363-21.4-23.372,9.944s-9.328-5.994-10.227-19.779.829-30.868,3.861-35.363S1070.527,260.589,1070.527,260.589Z"/><path class="o" d="M1098.392,300.4s.005.149-.008.441l-.069,1.3c-.073,1.162-.178,2.847-.313,5.02-.293,4.393-.717,10.754-1.248,18.712-.58,7.969-1.12,17.554-1.761,28.354s-1.367,22.82-2.136,35.667l-.014.238h-.239l-27.288.008h-8.774l-.041-.21c-1.531-7.85-3.013-15.449-4.414-22.636l.008.031a106.987,106.987,0,0,1-5.186-33.682,145.2,145.2,0,0,1,2.653-26.887c1.409-7.459,2.94-13.314,4.051-17.308.547-2,1.032-3.525,1.336-4.563.154-.5.274-.891.36-1.173.083-.263.136-.393.136-.393s-.024.139-.094.406l-.318,1.185c-.277,1.045-.735,2.577-1.255,4.583-1.06,4.005-2.541,9.866-3.9,17.321a146.943,146.943,0,0,0-2.535,26.829,107.117,107.117,0,0,0,5.232,33.524l.005.016,0,.015c1.407,7.186,2.9,14.783,4.432,22.632l-.255-.21h8.56l27.288.007-.253.238c.794-12.847,1.537-24.863,2.2-35.665s1.251-20.381,1.875-28.347c.594-7.954,1.069-14.313,1.4-18.7.172-2.17.305-3.852.4-5.013.049-.557.086-.985.114-1.295C1098.367,300.547,1098.392,300.4,1098.392,300.4Z"/><path class="g" d="M1086.648,229.592l-9.667.894,5.6,4.575a4.246,4.246,0,0,0,4.066-5.469Z"/><path class="e" d="M1064.263,232.589l-10.886-4.312a1.861,1.861,0,0,1-1.039-2.432h0a1.862,1.862,0,0,1,2.474-1l13.694,6.016,21.843,9.592,2.146,2.866-3.624.761Z"/><path class="g" d="M1061.279,255.642a6.591,6.591,0,0,1-1-4.324,17.571,17.571,0,0,0-.078-5.154s-1.2-3.934,0-5.479a4.829,4.829,0,0,0,1.075-3.091s.127-4.031,1.251-4.334,11.662-5.079,13.067-4.517,12.785,10.537,12.785,10.537,1.127,2.969-1.544,2.889l3.511,3.293-6.182,2.586-18.515,9.859S1062.294,258.348,1061.279,255.642Z"/><path class="r" d="M1085.9,247.088a17.116,17.116,0,0,1-2.571-.342,56.531,56.531,0,0,0-12.421-.529,16.98,16.98,0,0,1-2.591.122,10.427,10.427,0,0,1,2.557-.489,39.658,39.658,0,0,1,12.519.533A10.383,10.383,0,0,1,1085.9,247.088Z"/><path class="r" d="M1086.838,242.169a12.316,12.316,0,0,0-2.2-1.709,16.86,16.86,0,0,0-6.494-1.637c-2.633-.238-5.06-.12-6.815-.213a10.35,10.35,0,0,1-2.826-.335c.009-.077,1.087,0,2.831-.033a66,66,0,0,1,6.86.063,15.368,15.368,0,0,1,6.63,1.838,6.315,6.315,0,0,1,1.6,1.374C1086.737,241.906,1086.862,242.153,1086.838,242.169Z"/><path class="g" d="M1088.382,239.28a10.358,10.358,0,0,1-1.907-1.336c-1.135-.876-2.68-2.114-4.365-3.506s-3.193-2.674-4.268-3.622a10.384,10.384,0,0,1-1.67-1.618,10.307,10.307,0,0,1,1.906,1.335c1.135.876,2.68,2.114,4.367,3.507s3.193,2.674,4.268,3.623A10.322,10.322,0,0,1,1088.382,239.28Z"/><path class="g" d="M1066.418,257.464c.013.061-.472.238-1.3.212a5.3,5.3,0,0,1-4.83-3.669c-.245-.787-.2-1.3-.143-1.305.081-.012.172.473.487,1.174a5.783,5.783,0,0,0,4.52,3.434A7.746,7.746,0,0,1,1066.418,257.464Z"/><path class="p" d="M1038.465,291.634s-7.154,5.949-6.891,25.154-1.271,25.1-1.271,25.1h4.081l32.494-37.1a46.111,46.111,0,0,1-2.368-17.89c.408-6.752,6.017-26.309,6.017-26.309l-2.021.26Z"/><path class="s" d="M1036.443,291.893s-7.154,5.949-6.891,25.155-1.271,25.1-1.271,25.1h4.081l32.495-37.1a46.108,46.108,0,0,1-2.368-17.889c.407-6.752,6.017-26.309,6.017-26.309l-3.814-2.169Z"/><path class="e" d="M1064.781,259.5a.806.806,0,0,1-.044.225c-.048.173-.106.385-.177.643q-.269.9-.729,2.462c-.676,2.127-1.538,5.244-2.522,9.13a104.092,104.092,0,0,0-2.447,13.892,54.3,54.3,0,0,0-.2,8.352q.108,1.082.217,2.182c.136.723.219,1.465.4,2.19l.268,1.091.351,1.072a8.564,8.564,0,0,0,.985,1.992l.142.191-.158.16-2.113,2.131a285.726,285.726,0,0,0-22.066,25.325c-2.631,3.4-4.691,6.209-6.106,8.155l-1.628,2.242-.433.577a.894.894,0,0,1-.162.187.853.853,0,0,1,.118-.217l.391-.606c.35-.528.863-1.311,1.548-2.3,1.365-1.983,3.383-4.826,5.98-8.262a263.086,263.086,0,0,1,21.986-25.466l2.118-2.134-.016.35a8.788,8.788,0,0,1-1.071-2.147l-.362-1.108-.273-1.12c-.183-.743-.267-1.5-.4-2.235q-.108-1.117-.214-2.217a53.88,53.88,0,0,1,.234-8.43,99.812,99.812,0,0,1,2.569-13.934c1.032-3.884,1.948-6.991,2.682-9.1q.517-1.539.819-2.435c.09-.252.164-.458.224-.627A.823.823,0,0,1,1064.781,259.5Z"/><path class="e" d="M1064.983,305.473a5.966,5.966,0,0,1-2.229-1.039c-1.158-.7-2.035-1.363-1.961-1.486a5.967,5.967,0,0,1,2.229,1.04C1064.179,304.685,1065.057,305.35,1064.983,305.473Z"/><path class="e" d="M1050.725,308.168a7.309,7.309,0,0,1-.275-1.394c-.152-.9-.3-2.219-.426-3.851a61.857,61.857,0,0,1,3.437-25.183c.556-1.539,1.054-2.767,1.442-3.6a7.445,7.445,0,0,1,.638-1.27,7.5,7.5,0,0,1-.451,1.347c-.329.849-.773,2.092-1.281,3.637a69.426,69.426,0,0,0-3.417,25.043c.075,1.625.169,2.941.259,3.848A7.533,7.533,0,0,1,1050.725,308.168Z"/><path class="e" d="M1046.427,309.179a3.884,3.884,0,0,1-.42-1.048,19.313,19.313,0,0,1-.668-3,66.021,66.021,0,0,1-.309-10.111,38.209,38.209,0,0,1,.484-5.565,28.681,28.681,0,0,1,1.126-4.425,24.892,24.892,0,0,1,1.17-2.841,4.169,4.169,0,0,1,.563-.978c.082.038-.629,1.476-1.382,3.933a32.261,32.261,0,0,0-1,4.388,42.024,42.024,0,0,0-.437,5.5,84.427,84.427,0,0,0,.153,10.051C1045.981,307.636,1046.515,309.152,1046.427,309.179Z"/><path class="e" d="M1041.923,312.09a3.134,3.134,0,0,1-.017-.853c.033-.649.073-1.429.119-2.349.121-2,.321-4.807.573-8.034l.089.214a4.107,4.107,0,0,1,.725-6.789l.089.471a3.352,3.352,0,0,1-1.356-6.2l.324-.187-.084.352a2.493,2.493,0,0,1-1.541,1.769,1.327,1.327,0,0,1-.835.108c0-.041.3-.039.767-.265a2.375,2.375,0,0,0,1.3-1.671l.24.165a3.106,3.106,0,0,0-1.353,2.762,3,3,0,0,0,2.6,2.671l.806.093-.717.379a3.625,3.625,0,0,0-.635,5.958l.1.085-.011.13c-.281,3.224-.546,6.025-.755,8.019-.105.915-.194,1.691-.268,2.337A3.186,3.186,0,0,1,1041.923,312.09Z"/><path class="e" d="M1039.888,315.526a2.854,2.854,0,0,1-.353-.8,18.875,18.875,0,0,1-.664-2.29,33.644,33.644,0,0,1-.783-7.817,66.594,66.594,0,0,1,.583-7.824,18.775,18.775,0,0,1,.545-3.2,21.43,21.43,0,0,1-.179,3.24c-.16,1.994-.4,4.747-.428,7.789a40.955,40.955,0,0,0,.622,7.739C1039.6,314.316,1039.973,315.5,1039.888,315.526Z"/><path class="e" d="M1035.238,323.94a4.56,4.56,0,0,1-.107-1.1c-.036-.71-.07-1.738-.1-3.008-.052-2.539-.145-6.047-.068-9.931a66.808,66.808,0,0,1,.853-9.911c.221-1.255.45-2.262.633-2.95a4.568,4.568,0,0,1,.346-1.054c.083.021-.273,1.552-.615,4.06a86.572,86.572,0,0,0-.7,9.867c-.077,3.866-.042,7.377-.085,9.917-.016,1.27-.039,2.3-.066,3.009A4.549,4.549,0,0,1,1035.238,323.94Z"/><path class="o" d="M1052.526,367.7a4.806,4.806,0,0,1-.991.585c-.654.345-1.608.827-2.794,1.409-2.372,1.164-5.672,2.722-9.352,4.369s-7.049,3.059-9.514,4.013c-1.236.471-2.238.846-2.941,1.075a5,5,0,0,1-1.107.316,4.842,4.842,0,0,1,1.034-.505l2.874-1.226c2.426-1.04,5.765-2.5,9.442-4.149l9.407-4.227,2.864-1.258A4.922,4.922,0,0,1,1052.526,367.7Z"/><path class="t" d="M939.047,365.967c-2.843-.142-3.679-4.156-2.62-6.8s3.152-4.993,3.181-7.838c.025-2.47-1.543-4.715-1.693-7.18-.271-4.448,4.026-8.073,4.209-12.526.143-3.47-2.265-6.775-1.682-10.2.626-3.674,4.459-6.087,5.338-9.709.936-3.857-1.74-7.937-.715-11.771,1.022-3.819,5.522-6.622,4.881-10.524a36.68,36.68,0,0,0-1.338-3.679c-.806-2.91.782-5.947,2.707-8.273s4.285-4.391,5.474-7.167c1.827-4.266.557-9.457,2.716-13.565,1.8-3.42,5.8-5.722,6.3-9.552,2.029,3.447.046,7.836.507,11.809.3,2.591,1.643,4.928,2.468,7.4a19.274,19.274,0,0,1-1.513,15.422c-1.739,3.056-4.42,5.939-4.283,9.452.165,4.253,4.421,7.338,5.172,11.527,1.076,5.995-5.309,11.385-4.426,17.411.228,1.554.939,3.017,1.072,4.583.454,5.326-5.588,9.09-6.507,14.356-.676,3.875,1.564,7.88.638,11.7-.714,2.947-3.26,5.588-2.634,8.555a20.6,20.6,0,0,0,1.627,3.581,6.829,6.829,0,0,1-1.068,7.062,5.936,5.936,0,0,1-6.867,1.411"/><path class="u" d="M954.215,360.386a7.809,7.809,0,0,1-1.1-4.208c.292-1.628,3.044-3.058,3.728-5.819.888-3.581-.714-9.916-.031-13.528.927-4.909,6.006-8.139,5.8-13.014-.061-1.433.141-5.263,0-6.68-.543-5.491,4.28-9.178,3.577-14.628-.491-3.809-4.441-8.273-4.444-12.179,0-3.226,2.31-6.054,3.847-8.981a20.152,20.152,0,0,0,1.739-14.3c-.606-2.225-1.644-4.289-1.812-6.655-.258-3.629,1.524-7.8-.049-10.841-.538,3.559-3.924,5.938-5.521,9.2-1.918,3.923-1.029,8.621-2.677,12.668-1.073,2.632-3.093,4.687-4.761,6.954s-3.08,5.166-2.5,7.793a33.161,33.161,0,0,1,.994,3.3c.408,3.551-3.41,6.425-4.376,10.008s1.119,7.179.222,10.791c-.842,3.393-4.163,8-4.8,11.425-.591,3.191,2.3,5.266,2.072,8.471-.291,4.111-4.412,9.087-4.328,13.165.047,2.26,1.938,2.985,1.839,5.26-.113,2.623-2.308,7.834-3.268,10.336a7.078,7.078,0,0,0,.681,7.038l12.22,6.062C956.722,369.43,956.481,364.126,954.215,360.386Z"/><path class="e" d="M962.429,268.134a1.1,1.1,0,0,1,.02.271c0,.206.005.468.009.794-.006.7-.007,1.729-.126,3.054a15.232,15.232,0,0,1-1.1,4.718c-.719,1.794-2.239,3.4-3.679,5.245a9.724,9.724,0,0,0-1.742,3.19,10.843,10.843,0,0,0-.443,3.912c.131,2.759.982,5.632,1.384,8.765a13.354,13.354,0,0,1-.157,4.861,9.259,9.259,0,0,1-.957,2.358,21.492,21.492,0,0,0-1.289,2.145c-.7,1.5-.425,3.265-.072,4.96.175.859.369,1.733.473,2.638a10.518,10.518,0,0,1-.07,2.75,21.685,21.685,0,0,1-1.683,5.133,41.542,41.542,0,0,0-1.889,4.808,12.411,12.411,0,0,0-.423,4.881,22.014,22.014,0,0,1,.171,4.847,14.69,14.69,0,0,1-1.542,4.362,17.158,17.158,0,0,0-1.54,3.966c-.517,2.7.249,5.288.194,7.683a20.619,20.619,0,0,1-1.405,6.259,21.987,21.987,0,0,0-1.194,4.642,6.686,6.686,0,0,0,.308,2.976c.249.643.439.962.413.976a5.3,5.3,0,0,1-.505-.94,6.532,6.532,0,0,1-.406-3.029,21.424,21.424,0,0,1,1.123-4.71,20.649,20.649,0,0,0,1.319-6.176,36.794,36.794,0,0,0-.3-3.687,13.783,13.783,0,0,1,.05-4.074c.528-2.832,2.6-5.258,3.033-8.308a21.747,21.747,0,0,0-.19-4.747,12.886,12.886,0,0,1,.428-5.054c.937-3.329,2.966-6.36,3.55-9.884a10.049,10.049,0,0,0,.067-2.62c-.1-.87-.288-1.73-.464-2.6-.349-1.7-.659-3.586.112-5.254a21.248,21.248,0,0,1,1.32-2.193,8.782,8.782,0,0,0,.91-2.227,12.977,12.977,0,0,0,.163-4.693c-.381-3.08-1.223-5.976-1.342-8.8a11.167,11.167,0,0,1,.489-4.046,10.035,10.035,0,0,1,1.827-3.285c1.483-1.861,2.982-3.411,3.7-5.144a15.387,15.387,0,0,0,1.163-4.627c.148-1.312.179-2.342.217-3.038.016-.325.03-.586.04-.792A1.186,1.186,0,0,1,962.429,268.134Z"/><path class="t" d="M921.59,367.362c-3.977.582-6.235-4.75-5.492-8.7s3-7.78,2.261-11.731c-.641-3.428-3.429-6.108-4.312-9.482-1.594-6.088,3.367-12.289,2.4-18.507-.753-4.847-4.994-8.768-5.124-13.671-.139-5.262,4.511-9.654,4.736-14.914.24-5.6-4.584-10.518-4.214-16.111.369-5.571,5.837-10.688,3.88-15.918-.648-1.73-2.034-3.08-2.863-4.731-1.913-3.811-.545-8.453,1.486-12.2s4.733-7.258,5.62-11.429c1.363-6.411-1.818-13.255.048-19.538,1.553-5.23,6.463-9.515,6.112-14.959,3.755,4.22,2.209,10.845,3.937,16.223,1.127,3.506,3.626,6.376,5.446,9.578a27.224,27.224,0,0,1,2.128,21.782c-1.572,4.709-4.5,9.438-3.345,14.268,1.394,5.847,8.135,8.955,10.324,14.553,3.131,8.011-4.238,17.229-1.364,25.335.742,2.091,2.127,3.923,2.741,6.055,2.088,7.255-5.253,14.125-5.084,21.672.125,5.555,4.326,10.49,4.09,16.041-.182,4.279-2.985,8.635-1.306,12.575.728,1.708,2.194,2.977,3.234,4.515a9.644,9.644,0,0,1,.456,10.076,8.384,8.384,0,0,1-9.129,3.836"/><path class="u" d="M941.076,355.475c-1.094-1.2-2.643-3.861-2.672-5.529-.041-2.335,3.38-5.071,3.571-9.083.249-5.2-3.7-13.543-3.749-18.735-.06-7.054,6.093-12.921,4.468-19.618-.477-1.968-1.246-7.33-1.828-9.254-2.256-7.46,3.415-13.888.949-21.247-1.723-5.143-8.419-10.246-9.493-15.656-.887-4.469,1.542-9.021,2.87-13.5a28.459,28.459,0,0,0-1.508-20.287c-1.448-2.916-3.452-5.492-4.333-8.724-1.351-4.956-.024-11.222-3.036-15.006.229,5.078-3.811,9.3-5.128,14.263-1.583,5.96.935,12.225-.241,18.283-.765,3.942-3,7.342-4.691,10.939s-2.852,8-1.334,11.483c.657,1.509,1.771,2.712,2.281,4.3,1.538,4.808-2.964,9.834-3.321,15.063-.359,5.249,3.516,9.641,3.263,14.891-.238,4.93-3.577,12.225-3.517,17.142.055,4.582,4.628,6.666,5.191,11.168.722,5.776-3.624,13.8-2.39,19.425.684,3.118,3.5,3.605,3.989,6.785.561,3.664-1.053,11.486-1.7,15.214s-.033,6.385,2.871,9.565l18.592,5.051C947.028,367.318,945.24,360.036,941.076,355.475Z"/><path class="e" d="M927.189,225.414a46.757,46.757,0,0,1,.955,5.737,21.573,21.573,0,0,1-.25,6.823A17.165,17.165,0,0,1,926.433,242c-.665,1.361-1.474,2.738-2.209,4.231a13.778,13.778,0,0,0-1.553,4.919,15.354,15.354,0,0,0,.453,5.57c.938,3.8,2.9,7.552,4.312,11.773a18.788,18.788,0,0,1,1.105,6.745,12.986,12.986,0,0,1-.675,3.5,30.261,30.261,0,0,0-1.2,3.336c-.562,2.306.31,4.7,1.262,6.953.479,1.142.985,2.3,1.374,3.517a14.681,14.681,0,0,1,.653,3.8,30.549,30.549,0,0,1-.924,7.547,58.587,58.587,0,0,0-1.3,7.192,18.023,18.023,0,0,0,.031,3.524,19.545,19.545,0,0,0,.725,3.389,30.9,30.9,0,0,1,1.564,6.648,20.612,20.612,0,0,1-.935,6.438,24.283,24.283,0,0,0-1.044,5.939,19.093,19.093,0,0,0,.992,5.524,51.239,51.239,0,0,1,1.394,5.08,18.439,18.439,0,0,1,.231,4.8c-.1,1.511-.281,2.925-.449,4.242a30.9,30.9,0,0,0-.365,6.769,9.4,9.4,0,0,0,1.264,4.046c.527.821.883,1.206.856,1.227a8.148,8.148,0,0,1-.94-1.175,9.239,9.239,0,0,1-1.369-4.078,30.275,30.275,0,0,1,.282-6.822c.155-1.32.325-2.73.41-4.227a18.285,18.285,0,0,0-.26-4.711,51.776,51.776,0,0,0-1.416-5.036,19.4,19.4,0,0,1-1.037-5.636,24.556,24.556,0,0,1,1.034-6.044,20.3,20.3,0,0,0,.9-6.3,30.741,30.741,0,0,0-1.563-6.545,19.956,19.956,0,0,1-.746-3.465,18.448,18.448,0,0,1-.039-3.619,58.748,58.748,0,0,1,1.3-7.254,30.137,30.137,0,0,0,.91-7.426,14.2,14.2,0,0,0-.629-3.674c-.377-1.185-.877-2.327-1.357-3.477a21.526,21.526,0,0,1-1.22-3.532,8.147,8.147,0,0,1-.06-3.717,30.293,30.293,0,0,1,1.224-3.389,12.547,12.547,0,0,0,.655-3.362,18.389,18.389,0,0,0-1.068-6.581c-1.377-4.173-3.338-7.949-4.277-11.816a15.692,15.692,0,0,1-.433-5.712,14.081,14.081,0,0,1,1.617-5.028c.754-1.5,1.571-2.873,2.241-4.215a17.012,17.012,0,0,0,1.472-3.946,21.757,21.757,0,0,0,.328-6.745c-.161-1.86-.406-3.294-.551-4.267-.073-.468-.129-.835-.171-1.108A2.206,2.206,0,0,1,927.189,225.414Z"/><path class="t" d="M919.1,369.981c-2.268,1.117-4.65-1.638-4.969-4.146s.292-5.236-.914-7.458c-1.047-1.927-3.233-2.993-4.414-4.841-2.13-3.336-.36-8.006-2.14-11.541-1.387-2.755-4.684-4.282-5.709-7.191-1.1-3.122.834-6.65-.048-9.841-.939-3.4-4.777-5.41-5.636-8.828s1.427-7.526-.755-10.277a32.469,32.469,0,0,0-2.628-2.278c-1.881-1.911-1.96-4.954-1.469-7.591s1.43-5.258,1.154-7.926c-.423-4.1-3.65-7.582-3.747-11.7-.082-3.431,2.029-6.944.767-10.135,3.062,1.8,3.418,6.064,5.492,8.949,1.352,1.88,3.4,3.115,5.11,4.68a17.125,17.125,0,0,1,5.484,12.624c-.031,3.123-.867,6.518.755,9.187,1.965,3.23,6.6,3.787,8.992,6.714,3.423,4.189.794,11.131,4.081,15.427.848,1.108,2.031,1.936,2.811,3.094,2.652,3.938-.414,9.469,1.146,13.953,1.148,3.3,4.616,5.442,5.548,8.81.718,2.6-.118,5.745,1.649,7.778a18.388,18.388,0,0,0,2.809,2.078,6.065,6.065,0,0,1,2.22,5.942,5.273,5.273,0,0,1-4.722,4.06"/><path class="u" d="M928.465,359.1a6.938,6.938,0,0,1-2.668-2.793c-.476-1.389,1.043-3.688.382-6.126-.857-3.163-4.835-7.39-5.865-10.488-1.4-4.211,1.149-8.911-1.118-12.6-.666-1.086-2.163-4.146-2.883-5.185-2.792-4.029-.64-8.972-3.538-12.9-2.026-2.745-7.019-4.505-8.708-7.535-1.394-2.5-.821-5.7-.891-8.633a17.893,17.893,0,0,0-4.824-11.85c-1.43-1.465-3.127-2.62-4.279-4.384-1.767-2.705-2.184-6.711-4.718-8.394,1.119,2.995-.483,6.3-.312,9.528.2,3.873,2.922,7.136,3.39,10.989.3,2.506-.377,4.973-.694,7.453s-.16,5.34,1.422,7.131a29.267,29.267,0,0,1,2.2,2.133c1.85,2.58.127,6.459.924,9.657s3.968,5.091,4.831,8.282c.811,3,.222,8.008,1.208,10.939.919,2.732,4.059,3.1,5.266,5.681,1.549,3.317.5,8.958,2.324,12.087,1.012,1.735,2.793,1.481,3.7,3.29,1.044,2.085,1.59,7.078,1.924,9.434a6.29,6.29,0,0,0,3.568,5.17l12.1-.571C934.316,365.038,931.839,361.025,928.465,359.1Z"/><path class="e" d="M895.015,283.943a.919.919,0,0,1,.135.2l.352.612c.3.543.745,1.343,1.226,2.423a13.555,13.555,0,0,1,1.187,4.141,21.679,21.679,0,0,1-.588,5.664,8.6,8.6,0,0,0,.027,3.221,9.583,9.583,0,0,0,1.343,3.22c1.292,2.082,3.192,3.943,4.86,6.2a11.886,11.886,0,0,1,1.981,3.85,8.21,8.21,0,0,1,.276,2.251,19.192,19.192,0,0,0-.074,2.218,7.075,7.075,0,0,0,2.079,3.866c.507.59,1.036,1.186,1.508,1.845a9.355,9.355,0,0,1,1.136,2.171,19.242,19.242,0,0,1,.911,4.718,36.838,36.838,0,0,0,.609,4.544,10.993,10.993,0,0,0,1.774,3.963,19.568,19.568,0,0,1,2.227,3.694,13.053,13.053,0,0,1,.687,4.06,15.235,15.235,0,0,0,.514,3.738c.76,2.311,2.47,3.992,3.463,5.878a18.364,18.364,0,0,1,1.61,5.472,19.5,19.5,0,0,0,1.072,4.117,5.936,5.936,0,0,0,1.518,2.177c.468.393.752.56.737.584a4.534,4.534,0,0,1-.8-.508,5.772,5.772,0,0,1-1.628-2.176,18.954,18.954,0,0,1-1.168-4.142,18.336,18.336,0,0,0-1.644-5.357c-.975-1.825-2.715-3.484-3.546-5.921-.815-2.434-.254-5.213-1.234-7.756a19.294,19.294,0,0,0-2.2-3.6,11.46,11.46,0,0,1-1.854-4.117c-.711-2.994-.446-6.223-1.512-9.2a8.866,8.866,0,0,0-1.075-2.056c-.451-.631-.969-1.216-1.479-1.812a7.5,7.5,0,0,1-2.187-4.143,18.9,18.9,0,0,1,.078-2.275,7.782,7.782,0,0,0-.255-2.114,11.469,11.469,0,0,0-1.894-3.7c-1.623-2.225-3.527-4.11-4.84-6.255a9.925,9.925,0,0,1-1.368-3.361,8.911,8.911,0,0,1,0-3.345,21.907,21.907,0,0,0,.658-5.588,13.74,13.74,0,0,0-1.089-4.09c-.451-1.083-.869-1.9-1.139-2.453l-.308-.634A.84.84,0,0,1,895.015,283.943Z"/><path class="v" d="M901.725,360.41l4.705,9.571h57.346l6.47-9.571Z"/><path class="v" d="M907.805,366.685l8.584,29.634,38.627.032,7.781-29.615Z"/><path class="e" d="M963.522,369.911c0,.135-12.8.245-28.576.245s-28.578-.11-28.578-.245,12.793-.246,28.578-.246S963.522,369.775,963.522,369.911Z"/></g></svg>