<svg xmlns="http://www.w3.org/2000/svg" width="695.201" height="395.298" viewBox="0 0 695.201 395.298"><defs><style>.a{opacity:0.4;}.b{fill:rgba(255,255,255,0.27);}.c{opacity:0.17;}.d{fill:#fff;}.e{fill:#263238;}.f{fill:#0f9b2c;}.g{fill:#ffe53c;}.h{fill:#dfdfdf;}.i{fill:#707070;}.j{fill:#ebebeb;}.k{fill:#10192b;}.l{fill:#e1751b;}.m{fill:#ffbe9d;}.n{fill:#eb996e;}.o{fill:#37d6b5;}.p,.q{opacity:0.3;}.r{fill:#fafafa;}.s{fill:#8cc408;}.t{fill:#f60;}.u{fill:#ff7600;}</style></defs><g transform="translate(-22.733 -45.512)"><g transform="translate(28.939 45.512)"><g class="a" transform="translate(541.783 154.846)"><path class="b" d="M585.549,202.631H725.981L703.1,219.139v32.478a6.781,6.781,0,0,1-6.781,6.781H585.549a6.782,6.782,0,0,1-6.781-6.781v-42.2A6.782,6.782,0,0,1,585.549,202.631Z" transform="translate(-578.768 -202.631)"/><g transform="translate(12.639 22.708)"><path class="b" d="M591.593,225.916c0,.136,21.18.245,47.3.245s47.305-.109,47.305-.245-21.176-.244-47.305-.244S591.593,225.781,591.593,225.916Z" transform="translate(-591.593 -225.672)"/></g><g transform="translate(12.639 35.177)"><path class="b" d="M591.593,238.569c0,.135,21.18.245,47.3.245s47.305-.11,47.305-.245-21.176-.245-47.305-.245S591.593,238.433,591.593,238.569Z" transform="translate(-591.593 -238.324)"/></g></g><g class="a" transform="translate(273.821 12.117)"><g transform="translate(54.892 22.889)"><rect class="b" width="6.572" height="22.013"/></g><g transform="translate(0 19.7)"><rect class="b" width="6.572" height="25.203"/></g><g transform="translate(13.723 14.447)"><rect class="b" width="6.572" height="30.456"/></g><g transform="translate(27.446 16.117)"><rect class="b" width="6.572" height="28.785"/></g><g transform="translate(41.169 6.379)"><rect class="b" width="6.572" height="38.524"/></g><g transform="translate(68.614 6.567)"><rect class="b" width="6.572" height="38.336"/></g><g transform="translate(82.337 19.158)"><rect class="b" width="6.572" height="25.745"/></g><g transform="translate(96.06 8.255)"><rect class="b" width="6.572" height="36.647"/></g><g transform="translate(109.783)"><rect class="b" width="6.572" height="44.903"/></g><g transform="translate(123.506 8.068)"><rect class="b" width="6.572" height="36.835"/></g></g><g class="a" transform="translate(522.082)"><path class="b" d="M613.752,100.49l54.348-8.3a54.978,54.978,0,1,1-48.312-46.342Z" transform="translate(-558.778 -45.512)"/><g transform="translate(66.009 0.506)"><path class="b" d="M632.355,46.025l-6.6,42.129,41.354-7.766S661.029,56.778,632.355,46.025Z" transform="translate(-625.756 -46.025)"/></g></g><g class="c" transform="translate(22.122 127.496)"><g transform="translate(0 2.174)"><path class="d" d="M51.48,204.592a26.948,26.948,0,1,1,27.377,26.634A27.046,27.046,0,0,1,51.48,204.592Zm39.827-.643A12.885,12.885,0,1,0,78.631,217.1,12.928,12.928,0,0,0,91.307,203.95Z" transform="translate(-51.476 -177.085)"/></g><g transform="translate(0 2.177)"><path class="d" d="M51.48,204.592a27.046,27.046,0,0,1,26.512-27.5l.226,14.126a12.944,12.944,0,0,0,.414,25.885l.226,14.126A27.035,27.035,0,0,1,51.48,204.592Z" transform="translate(-51.476 -177.089)"/></g><g transform="translate(24.096)"><path class="d" d="M75.926,174.884a30.79,30.79,0,0,1,31.526,30.671L91,205.821c-.133-8.349-6.486-13.606-14.8-13.471Z" transform="translate(-75.926 -174.88)"/></g></g><g class="a" transform="translate(8.733 1.259)"><path class="b" d="M189.059,46.789H37.891l24.625,17.77V99.52a7.3,7.3,0,0,0,7.3,7.3H189.059a7.3,7.3,0,0,0,7.3-7.3V54.09A7.3,7.3,0,0,0,189.059,46.789Z" transform="translate(-37.891 -46.789)"/><g transform="translate(43.023 24.444)"><path class="b" d="M183.386,71.855c0,.146-22.8.264-50.917.264S81.546,72,81.546,71.855s22.794-.263,50.922-.263S183.386,71.709,183.386,71.855Z" transform="translate(-81.546 -71.592)"/></g><g transform="translate(43.023 37.866)"><path class="b" d="M183.386,85.475c0,.146-22.8.264-50.917.264s-50.922-.118-50.922-.264,22.794-.264,50.922-.264S183.386,85.329,183.386,85.475Z" transform="translate(-81.546 -85.211)"/></g></g></g><g transform="translate(22.733 440.296)"><path class="e" d="M713.13,446.35c0,.141-154.563.256-345.182.256-190.685,0-345.215-.115-345.215-.256s154.53-.257,345.215-.257C558.567,446.093,713.13,446.208,713.13,446.35Z" transform="translate(-22.733 -446.093)"/></g><g transform="translate(47.9 273.996)"><g transform="translate(0 85.404)"><path class="f" d="M87.993,370.741c-7.7-4.93-18.368-5.024-25.86.214-7.114,4.972-10.726,14.021-10.411,22.695s4.518,19.27,12.375,23.826l23.064-.091A30.984,30.984,0,0,0,99.853,394.11C100.2,384.976,95.691,375.671,87.993,370.741Z" transform="translate(-48.319 -364.053)"/><g transform="translate(26.068 3.816)"><path class="e" d="M76.97,418.325a10.4,10.4,0,0,1-.145-1.985c-.04-1.418-.092-3.235-.154-5.41-.116-4.567-.3-10.874-.6-17.836s-.682-13.263-.967-17.823c-.13-2.172-.239-3.985-.322-5.4a10.241,10.241,0,0,1-.03-1.989,10.352,10.352,0,0,1,.314,1.964c.157,1.269.348,3.11.557,5.387.417,4.554.875,10.857,1.183,17.83s.4,13.29.386,17.863c-.007,2.286-.035,4.137-.081,5.415A10.246,10.246,0,0,1,76.97,418.325Z" transform="translate(-74.72 -367.881)"/></g><g transform="translate(0.19 26.973)"><path class="e" d="M54,392.037c-.017.2-1.27.265-2.8.139s-2.756-.391-2.739-.594,1.269-.265,2.8-.139S54.016,391.834,54,392.037Z" transform="translate(-48.462 -391.378)"/></g><g transform="translate(1.622 17.786)"><path class="e" d="M54.449,384.121c-.082.186-1.163-.113-2.414-.668s-2.2-1.155-2.116-1.341,1.163.113,2.415.668S54.532,383.934,54.449,384.121Z" transform="translate(-49.915 -382.056)"/></g><g transform="translate(5.651 10.339)"><path class="e" d="M58.513,378.234c-.1.169-1.321-.4-2.583-1.452s-2.056-2.132-1.909-2.267,1.152.688,2.378,1.7S58.624,378.059,58.513,378.234Z" transform="translate(-54.003 -374.5)"/></g><g transform="translate(12.203 4.255)"><path class="e" d="M62.637,372.7c-.186.082-.769-.828-1.3-2.033s-.813-2.248-.627-2.331.768.828,1.3,2.033S62.823,372.613,62.637,372.7Z" transform="translate(-60.652 -368.327)"/></g><g transform="translate(18.91)"><path class="e" d="M69.053,368.766c-.181.085-.808-.884-1.224-2.227s-.452-2.5-.255-2.529.554,1.019.958,2.31S69.241,368.679,69.053,368.766Z" transform="translate(-67.457 -364.009)"/></g><g transform="translate(29.739 0.394)"><path class="e" d="M79.755,364.413c.191.067.074.895-.262,1.847s-.764,1.67-.956,1.6-.074-.895.262-1.847S79.563,364.345,79.755,364.413Z" transform="translate(-78.445 -364.408)"/></g><g transform="translate(36.105 3.725)"><path class="e" d="M87.667,367.818c.139.149-.363.838-1.12,1.537s-1.482,1.147-1.62,1,.363-.837,1.12-1.537S87.529,367.668,87.667,367.818Z" transform="translate(-84.905 -367.789)"/></g><g transform="translate(42.594 8.155)"><path class="e" d="M94.648,372.327c.114.168-.5.782-1.366,1.37s-1.666.929-1.779.761.5-.782,1.366-1.37S94.534,372.159,94.648,372.327Z" transform="translate(-91.489 -372.284)"/></g><g transform="translate(46.041 14.771)"><path class="e" d="M99.586,379.054c.08.186-.884.777-2.153,1.319s-2.362.828-2.442.641.884-.777,2.153-1.319S99.507,378.867,99.586,379.054Z" transform="translate(-94.986 -378.997)"/></g><g transform="translate(48.094 21.875)"><path class="e" d="M101.541,386.387c.025.2-.956.489-2.191.642s-2.256.113-2.281-.088.955-.49,2.19-.643S101.516,386.185,101.541,386.387Z" transform="translate(-97.07 -386.206)"/></g><g transform="translate(49.188 28.995)"><path class="e" d="M102.559,395.39c-.081.187-1.125-.088-2.334-.613s-2.122-1.1-2.04-1.288,1.125.088,2.334.613S102.641,395.2,102.559,395.39Z" transform="translate(-98.18 -393.43)"/></g><g transform="translate(47.844 35.42)"><path class="e" d="M101.657,403.121c-.064.185-1.386-.129-2.765-1.037s-2.2-1.984-2.06-2.118,1.153.652,2.462,1.5S101.733,402.925,101.657,403.121Z" transform="translate(-96.815 -399.949)"/></g><g transform="translate(45.112 41.692)"><path class="e" d="M97.641,410.165c-.121.158-1.173-.46-2.182-1.55s-1.551-2.182-1.386-2.291.955.75,1.925,1.79S97.77,410,97.641,410.165Z" transform="translate(-94.044 -406.313)"/></g><g transform="translate(5.678 46.322)"><path class="e" d="M59.309,411.049c.095.18-1.01.941-2.466,1.7s-2.713,1.227-2.807,1.047,1.01-.941,2.467-1.7S59.215,410.869,59.309,411.049Z" transform="translate(-54.03 -411.011)"/></g><g transform="translate(3.242 40.016)"><path class="e" d="M55.825,404.669c.084.185-.8.768-1.979,1.3s-2.2.815-2.282.631.8-.768,1.978-1.3S55.741,404.484,55.825,404.669Z" transform="translate(-51.559 -404.612)"/></g><g transform="translate(0 34.349)"><path class="e" d="M53.242,399.017c.029.2-1.061.522-2.434.717s-2.51.189-2.538-.012S49.33,399.2,50.7,399,53.213,398.816,53.242,399.017Z" transform="translate(-48.269 -398.862)"/></g><g transform="translate(8.317 31.341)"><path class="e" d="M61.679,395.9c.06.189-1,.686-2.421.844s-2.565-.084-2.549-.282,1.124-.294,2.466-.449S61.62,395.7,61.679,395.9Z" transform="translate(-56.709 -395.81)"/></g><g transform="translate(16.234 24.444)"><path class="e" d="M68.7,388.928c.06.19-.786.619-1.928.728s-2.055-.14-2.033-.338.9-.287,1.961-.394S68.644,388.73,68.7,388.928Z" transform="translate(-64.742 -388.812)"/></g><g transform="translate(17.659 17.638)"><path class="e" d="M70.043,383.323c-.066.192-.983.05-2.046-.317s-1.872-.822-1.805-1.014.983-.05,2.046.317S70.11,383.131,70.043,383.323Z" transform="translate(-66.188 -381.906)"/></g><g transform="translate(22.417 10.845)"><path class="e" d="M72.646,377.655c-.142.141-.772-.274-1.22-1.055s-.495-1.531-.3-1.584.538.525.941,1.216S72.795,377.512,72.646,377.655Z" transform="translate(-71.015 -375.013)"/></g><g transform="translate(17.588 36.159)"><path class="e" d="M69.522,400.822c.048.2-.745.562-1.772.812a6.79,6.79,0,0,1-1.488.22l-.146-.43c.266-.048.438-.037.472.041s-.074.213-.289.375l-.146-.43a6.783,6.783,0,0,1,1.422-.492C68.6,400.668,69.474,400.625,69.522,400.822Z" transform="translate(-66.116 -400.699)"/></g><g transform="translate(17.626 45.983)"><path class="e" d="M70.946,410.727c.075.19-.937.765-2.259,1.284s-2.454.786-2.529.6.937-.764,2.26-1.283S70.872,410.539,70.946,410.727Z" transform="translate(-66.154 -410.667)"/></g><g transform="translate(11.359 41.607)"><path class="e" d="M63.051,406.328c.065.192-.609.6-1.507.9s-1.678.4-1.744.2.609-.6,1.507-.9S62.985,406.135,63.051,406.328Z" transform="translate(-59.796 -406.227)"/></g><g transform="translate(10.371 20.073)"><path class="e" d="M63.633,386.142c-.046.2-1.221.079-2.578-.4s-2.344-1.128-2.257-1.309,1.184.15,2.5.615S63.682,385.942,63.633,386.142Z" transform="translate(-58.793 -384.377)"/></g><g transform="translate(30.722 19.636)"><path class="e" d="M82.814,383.976c.111.169-.55.8-1.477,1.415s-1.77.97-1.882.8.549-.8,1.477-1.415S82.7,383.806,82.814,383.976Z" transform="translate(-79.442 -383.934)"/></g><g transform="translate(31.864 29.325)"><path class="e" d="M83.857,393.921c.041.2-.653.511-1.552.7s-1.661.176-1.7-.023.654-.512,1.553-.7S83.816,393.722,83.857,393.921Z" transform="translate(-80.601 -393.764)"/></g><g transform="translate(32.147 38.519)"><path class="e" d="M85.055,405.077c-.086.185-1.086-.1-2.235-.629s-2.01-1.113-1.926-1.3,1.086.1,2.235.63S85.141,404.893,85.055,405.077Z" transform="translate(-80.888 -403.094)"/></g><g transform="translate(31.42 48.373)"><path class="e" d="M82.519,415.953c-.158.129-.807-.4-1.452-1.187s-1.04-1.526-.882-1.655.806.4,1.451,1.187S82.676,415.824,82.519,415.953Z" transform="translate(-80.151 -413.092)"/></g><g transform="translate(30.75 12.408)"><path class="e" d="M81.993,376.652c.124.157-.3.7-1.041,1.065s-1.425.391-1.477.2.484-.52,1.147-.856S81.867,376.489,81.993,376.652Z" transform="translate(-79.471 -376.599)"/></g><g transform="translate(38.456 22.251)"><path class="e" d="M91.359,386.684c.067.187-.789.658-1.96.819s-2.123-.055-2.109-.253.917-.321,2.008-.476S91.292,386.487,91.359,386.684Z" transform="translate(-87.29 -386.586)"/></g><g transform="translate(36.43 13.415)"><path class="e" d="M89.486,377.679c.09.177-.76.784-1.969,1.169s-2.252.387-2.282.19.91-.522,2.058-.892S89.394,377.493,89.486,377.679Z" transform="translate(-85.234 -377.621)"/></g><g transform="translate(38.329 34.903)"><path class="e" d="M93.377,400.615c0,.2-1.456.327-3.209.006s-3.071-.946-3-1.132,1.442.1,3.135.408S93.384,400.407,93.377,400.615Z" transform="translate(-87.162 -399.425)"/></g><g transform="translate(37.284 45.158)"><path class="e" d="M89.923,413.658c-.121.158-1.192-.472-2.26-1.547s-1.7-2.146-1.537-2.268,1.023.711,2.059,1.748S90.051,413.5,89.923,413.658Z" transform="translate(-86.101 -409.83)"/></g><g transform="translate(10.575 2.977)"><path class="e" d="M74.412,367.034a33.39,33.39,0,0,0-6.454,5.1,31.5,31.5,0,0,0-8.04,17.771A39.9,39.9,0,0,0,60.4,400.8a83,83,0,0,0,2.039,8.739c.707,2.46,1.355,4.431,1.791,5.8a13.545,13.545,0,0,1,.62,2.145,12.362,12.362,0,0,1-.89-2.049c-.519-1.339-1.245-3.289-2.019-5.743a73.853,73.853,0,0,1-2.21-8.772,39.092,39.092,0,0,1-.548-11.091,30.985,30.985,0,0,1,8.4-18.047,23.08,23.08,0,0,1,4.815-3.763,14.37,14.37,0,0,1,1.473-.766A1.738,1.738,0,0,1,74.412,367.034Z" transform="translate(-59 -367.03)"/></g><g transform="translate(25.429 3.281)"><path class="e" d="M84.67,417.953a80.94,80.94,0,0,0,3.309-7.908,44.749,44.749,0,0,0,1.978-20.332,38.254,38.254,0,0,0-3.135-10.843,25.57,25.57,0,0,0-5.346-7.446,19.475,19.475,0,0,0-5.238-3.311c-1.362-.568-2.178-.7-2.166-.763a1.8,1.8,0,0,1,.6.046,11.114,11.114,0,0,1,1.668.449,18.129,18.129,0,0,1,5.479,3.186,25.2,25.2,0,0,1,5.615,7.545,37.665,37.665,0,0,1,3.252,11.033,43.231,43.231,0,0,1-2.215,20.605c-.416,1.271-.951,2.361-1.35,3.343-.474.95-.865,1.775-1.225,2.428A13.94,13.94,0,0,1,84.67,417.953Z" transform="translate(-74.072 -367.338)"/></g><g transform="translate(7.508 52.154)"><path class="g" d="M55.888,416.929H96.474l.249,8.123H55.888Z" transform="translate(-55.888 -416.929)"/></g><g transform="translate(10.956 56.216)"><path class="g" d="M59.387,421.05l2.331,24.8H91.389l2.383-24.526Z" transform="translate(-59.387 -421.05)"/></g><g transform="translate(7.518 60.007)"><path class="e" d="M96.723,425.266c0,.2-9.139.368-20.411.368s-20.413-.165-20.413-.368,9.138-.369,20.413-.369S96.723,425.062,96.723,425.266Z" transform="translate(-55.898 -424.897)"/></g><g transform="translate(12.901 65.467)"><path class="e" d="M92.678,432.9a6.147,6.147,0,0,1-.869,1.549,22.478,22.478,0,0,1-3.148,3.717l-.187.178-.184-.193a58.389,58.389,0,0,0-7.953-6.963l.448-.02-3.526,3.095-4.169,3.63-.231.2-.232-.194-6.776-5.7.394-.043c-1.4,1.709-2.575,3.143-3.506,4.278a9.947,9.947,0,0,1-1.377,1.507,9.989,9.989,0,0,1,1.133-1.7l3.312-4.429.17-.227.226.183,6.878,5.575-.461.007,4.153-3.647,3.537-3.083.218-.189.232.169a51.91,51.91,0,0,1,7.916,7.188l-.372-.015A41.5,41.5,0,0,0,92.678,432.9Z" transform="translate(-61.36 -430.437)"/></g></g></g><g transform="translate(120.8 130.521)"><g transform="translate(15.004)"><rect class="h" width="458.326" height="303.086" rx="14.567"/></g><g transform="translate(0 283.512)"><path class="h" d="M0,0H496.561a0,0,0,0,1,0,0V8.722a17.8,17.8,0,0,1-17.8,17.8H17.8A17.8,17.8,0,0,1,0,8.722V0A0,0,0,0,1,0,0Z"/></g><g transform="translate(198.986 280.67)"><path class="i" d="M324.147,416.56l6.162,9.8h86.706l5.722-9.8Z" transform="translate(-324.147 -416.56)"/></g><g transform="translate(15.004 280.373)"><path class="e" d="M591.852,416.556c0,.165-101.726.3-227.183.3-125.5,0-227.2-.133-227.2-.3s101.7-.3,227.2-.3C490.126,416.259,591.852,416.392,591.852,416.556Z" transform="translate(-137.464 -416.259)"/></g><g transform="translate(27.669 17.428)"><g transform="translate(0.461)"><path class="j" d="M3.273,0H427.009a3.273,3.273,0,0,1,3.273,3.273V251.955a3.273,3.273,0,0,1-3.273,3.273H3.272A3.272,3.272,0,0,1,0,251.956V3.273A3.273,3.273,0,0,1,3.273,0Z"/></g><g transform="translate(0 19.074)"><path class="d" d="M580.6,405.335H150.315l.461-236.528H580.6Z" transform="translate(-150.315 -168.808)"/></g><g transform="translate(28.878 6.421)"><path class="e" d="M186.489,159.4a3.436,3.436,0,1,1-3.437-3.436A3.436,3.436,0,0,1,186.489,159.4Z" transform="translate(-179.617 -155.969)"/></g><g transform="translate(8.05 6.421)"><path class="e" d="M165.356,159.4a3.437,3.437,0,1,1-3.437-3.436A3.436,3.436,0,0,1,165.356,159.4Z" transform="translate(-158.483 -155.969)"/></g><g transform="translate(18.047 6.421)"><path class="e" d="M175.5,159.4a3.437,3.437,0,1,1-3.437-3.436A3.436,3.436,0,0,1,175.5,159.4Z" transform="translate(-168.627 -155.969)"/></g></g><rect class="k" width="430.743" height="22.84" transform="translate(27.669 250.19)"/><g transform="translate(40.333 257.008)"><g transform="translate(0 3.257)"><path class="d" d="M166.774,399.844v.731h-3.43V400l1.848-1.755c.452-.432.532-.7.532-.963,0-.426-.293-.672-.865-.672a1.314,1.314,0,0,0-1.09.485l-.6-.465a2.151,2.151,0,0,1,1.768-.772c1.01,0,1.662.511,1.662,1.336a1.862,1.862,0,0,1-.771,1.469l-1.243,1.184Z" transform="translate(-163.165 -395.855)"/><path class="d" d="M167.3,397.554a.545.545,0,1,1,1.09,0,.545.545,0,1,1-1.09,0Zm0,2.533a.545.545,0,1,1,1.09,0,.545.545,0,1,1-1.09,0Z" transform="translate(-163.225 -395.872)"/><path class="d" d="M170.577,395.923v4.654h-.863v-3.929h-.984v-.724Z" transform="translate(-163.246 -395.856)"/><path class="d" d="M175.687,399.52h-.825v1.056h-.838V399.52h-2.553v-.6l2.292-3h.924l-2.16,2.866h1.523v-.938h.811v.938h.825Z" transform="translate(-163.285 -395.856)"/></g><g transform="translate(20.004 5.06)"><rect class="d" width="353.054" height="1.61"/></g><g transform="translate(19.74 3.326)"><rect class="l" width="110.33" height="4.292"/></g><g transform="translate(122.888 0.494)"><path class="l" d="M298.6,398.423a5.372,5.372,0,1,1-5.371-5.371A5.371,5.371,0,0,1,298.6,398.423Z" transform="translate(-287.857 -393.052)"/></g><g transform="translate(378.233 2.536)"><path class="d" d="M550.668,398.4a1.551,1.551,0,0,1-1.7,1.51c-1.268,0-2.014-.817-2.014-2.314a2.2,2.2,0,0,1,2.281-2.473,2.334,2.334,0,0,1,1.223.3l-.318.651a1.579,1.579,0,0,0-.884-.226c-.878,0-1.43.546-1.43,1.6v.007a1.589,1.589,0,0,1,1.243-.485A1.453,1.453,0,0,1,550.668,398.4Zm-.838.039c0-.485-.366-.789-.93-.789a.846.846,0,0,0-.944.8c0,.438.346.783.964.783A.807.807,0,0,0,549.831,398.44Z" transform="translate(-546.952 -395.124)"/><path class="d" d="M551.15,396.823a.545.545,0,1,1,1.089,0,.545.545,0,1,1-1.089,0Zm0,2.533a.545.545,0,1,1,1.089,0,.545.545,0,1,1-1.089,0Z" transform="translate(-547.013 -395.141)"/><path class="d" d="M552.82,397.518c0-1.53.838-2.394,1.94-2.394s1.948.864,1.948,2.394-.838,2.393-1.948,2.393S552.82,399.045,552.82,397.518Zm3.018,0c0-1.124-.438-1.642-1.077-1.642s-1.069.518-1.069,1.642.439,1.641,1.069,1.641S555.838,398.641,555.838,397.518Z" transform="translate(-547.037 -395.124)"/><path class="d" d="M557.354,397.518c0-1.53.838-2.394,1.941-2.394s1.947.864,1.947,2.394-.837,2.393-1.947,2.393S557.354,399.045,557.354,397.518Zm3.019,0c0-1.124-.439-1.642-1.077-1.642s-1.07.518-1.07,1.642.439,1.641,1.07,1.641S560.373,398.641,560.373,397.518Z" transform="translate(-547.103 -395.124)"/></g><g transform="translate(398.282)"><path class="d" d="M568.905,397.191H567.3v-4.64h4.631v1.61h-3.021Z" transform="translate(-567.295 -392.551)"/></g><g transform="translate(398.277 6.066)"><path class="d" d="M571.93,403.336h-4.64v-4.631h1.61v3.021h3.031Z" transform="translate(-567.29 -398.705)"/></g><g transform="translate(405.676 6.055)"><path class="d" d="M579.43,403.336H574.8v-1.61h3.022v-3.032h1.61Z" transform="translate(-574.798 -398.695)"/></g><g transform="translate(405.672)"><path class="d" d="M579.434,397.181h-1.61V394.16h-3.031v-1.61h4.64Z" transform="translate(-574.793 -392.551)"/></g></g><g transform="translate(48.632 50.566)"><path class="j" d="M209.628,183.078H184.266l-12.681,21.964,12.681,21.964h25.362l12.681-21.964Z" transform="translate(-171.586 -183.078)"/><g transform="translate(10.527 1.904)"><path class="e" d="M186.491,209.369a22.64,22.64,0,0,1-3.1-4,7.611,7.611,0,0,1-1.046-4.865c.161-.976.575-1.905.641-2.892.091-1.357-.48-2.775,0-4.048.752-1.989,3.429-2.3,5.052-3.67,1.263-1.069,1.879-2.807,3.269-3.707a6.143,6.143,0,0,1,4.207-.566,15.9,15.9,0,0,0,4.308.372,28.388,28.388,0,0,0,2.985-.8,4.077,4.077,0,0,1,3.01.2,1.958,1.958,0,0,1,.808,2.633c1.662-.766,3.772.529,4.226,2.3a4.977,4.977,0,0,1-1.863,4.856,10.912,10.912,0,0,1-5.027,2.051c-5.09.959-10.611.418-15-2.337" transform="translate(-182.267 -185.01)"/><g transform="translate(0.316 2.867)"><g transform="translate(3.098 1.131)"><path class="m" d="M210.055,214.848c-.171-3.144-1.051-9.588-1.915-15.412a12.151,12.151,0,0,0-12.83-10.343l-.627.042c-6.742.848-9.788,7.048-8.754,13.764l1.979,24.193h16.454s-.389-4.245-.391-4.286C203.971,222.807,210.41,221.36,210.055,214.848Z" transform="translate(-185.732 -189.066)"/><g transform="translate(9.601 31.803)"><path class="n" d="M204.116,223.179a15.165,15.165,0,0,1-8.642-1.843s2.318,4.547,8.77,3.527Z" transform="translate(-195.474 -221.336)"/></g><g transform="translate(6.871 9.849)"><g transform="translate(0.861 2.933)"><g transform="translate(9.815)"><g transform="translate(0.915 2.388)"><path class="e" d="M206.317,205.24a.931.931,0,0,1-.833,1,.89.89,0,0,1-1.014-.774.932.932,0,0,1,.833-1A.891.891,0,0,1,206.317,205.24Z" transform="translate(-204.466 -204.459)"/></g><path class="e" d="M207.212,202.9c-.107.129-.846-.345-1.846-.275s-1.7.618-1.814.5c-.057-.051.045-.278.349-.531a2.55,2.55,0,0,1,1.444-.553,2.447,2.447,0,0,1,1.478.371C207.146,202.626,207.265,202.838,207.212,202.9Z" transform="translate(-203.537 -202.036)"/></g><g transform="translate(0 0.844)"><g transform="translate(1.287 2.219)"><path class="e" d="M196.735,205.926a.93.93,0,0,1-.834,1,.89.89,0,0,1-1.013-.774.931.931,0,0,1,.832-1A.891.891,0,0,1,196.735,205.926Z" transform="translate(-194.883 -205.144)"/></g><path class="e" d="M197.253,203.752c-.106.129-.847-.344-1.845-.275s-1.7.619-1.815.5c-.057-.051.044-.277.35-.531a2.551,2.551,0,0,1,1.443-.553,2.452,2.452,0,0,1,1.479.371C197.187,203.482,197.306,203.7,197.253,203.752Z" transform="translate(-193.578 -202.892)"/></g><g transform="translate(6.777 0.576)"><path class="e" d="M201.477,210.92a6.683,6.683,0,0,1,1.6-.4c.253-.043.492-.11.523-.288a1.306,1.306,0,0,0-.222-.745q-.421-.9-.885-1.893a33.479,33.479,0,0,1-2.035-4.972,33.615,33.615,0,0,1,2.43,4.8q.448,1,.854,1.907a1.474,1.474,0,0,1,.2.992.636.636,0,0,1-.394.4,1.718,1.718,0,0,1-.43.09A6.551,6.551,0,0,1,201.477,210.92Z" transform="translate(-200.454 -202.62)"/></g></g><g transform="translate(0 0.072)"><path class="e" d="M197.237,199.764c-.081.278-1.088.216-2.251.436-1.168.2-2.091.6-2.263.37-.077-.111.071-.378.436-.667a3.985,3.985,0,0,1,3.439-.614C197.039,199.433,197.271,199.632,197.237,199.764Z" transform="translate(-192.704 -199.134)"/></g><g transform="translate(10.373)"><path class="e" d="M206.647,199.984c-.161.239-.865.049-1.694.094-.831.016-1.52.255-1.7.029-.078-.11.017-.346.309-.581a2.46,2.46,0,0,1,2.732-.1C206.6,199.641,206.717,199.869,206.647,199.984Z" transform="translate(-203.23 -199.06)"/></g></g></g><g transform="translate(0 19.625)"><path class="m" d="M186.737,207.952c-.113-.04-4.558-1.023-4.119,3.415s5.249,2.992,5.244,2.864S186.737,207.952,186.737,207.952Z" transform="translate(-182.588 -207.832)"/><g transform="translate(1.15 1.509)"><path class="n" d="M185.913,212.8c-.022-.012-.073.062-.2.135a.774.774,0,0,1-.577.069,1.923,1.923,0,0,1-1.056-1.629,2.557,2.557,0,0,1,.107-1.128.894.894,0,0,1,.522-.65.4.4,0,0,1,.477.167c.072.118.052.21.077.215s.088-.084.034-.263a.489.489,0,0,0-.2-.261.589.589,0,0,0-.439-.071,1.091,1.091,0,0,0-.739.769,2.636,2.636,0,0,0-.146,1.263,2.019,2.019,0,0,0,1.318,1.8.833.833,0,0,0,.7-.187C185.915,212.9,185.929,212.8,185.913,212.8Z" transform="translate(-183.754 -209.364)"/></g></g><g transform="translate(2.378)"><path class="e" d="M207.8,193.342c-.306,1.767-3.888,3.385-6.859,3.3-2.739-.08-4.091-1.439-6.081-2.4-1.26-.611-1.26-.611-2.969-.333-1.382.225-2.1,1.856-2.875,3.021,1.478,3.222.881,6.969.254,10.458a1.768,1.768,0,0,1-.449,1.06,1.416,1.416,0,0,1-1.8-.273,5.5,5.5,0,0,1-1.4-2.82,18.335,18.335,0,0,1-.44-7.217,12.48,12.48,0,0,1,3-6.515,11.823,11.823,0,0,1,8.068-3.682,14.525,14.525,0,0,1,8.606,2.443,8.511,8.511,0,0,1,2.942,2.963" transform="translate(-185.001 -187.919)"/></g></g><path class="n" d="M202.1,213.306l-2.263-1.055a.752.752,0,0,0-.411-.1.651.651,0,0,0-.391.265,2.1,2.1,0,0,0-.251,2.312,1.768,1.768,0,0,0,2.123.781,2.412,2.412,0,0,0,1.255-2.129Z" transform="translate(-182.503 -185.403)"/><g transform="translate(15.687 26.373)"><path class="e" d="M200.976,215.66c.035.044-.472.364-1.326.119a2.08,2.08,0,0,1-1.174-.953,2.158,2.158,0,0,1-.149-1.855,2.243,2.243,0,0,1,.548-.822,2.107,2.107,0,0,1,.384-.289.655.655,0,0,1,.6-.035c.517.288.865.533,1.213.756.662.44,1.055.742,1.019.8s-.493-.13-1.2-.49l-1.207-.631c-.094-.026-.085-.026-.174.022a1.685,1.685,0,0,0-.28.225,1.852,1.852,0,0,0-.417.644,1.759,1.759,0,0,0,.084,1.445,1.83,1.83,0,0,0,.885.84A4.809,4.809,0,0,0,200.976,215.66Z" transform="translate(-198.184 -211.77)"/></g><g transform="translate(8.239 15.206)"><path class="e" d="M200.153,205.294c-.05,0-.044-.413-.241-1.108a4.629,4.629,0,0,0-1.7-2.432,4.414,4.414,0,1,0,0,7.079,4.629,4.629,0,0,0,1.7-2.432c.2-.695.191-1.11.241-1.107.018,0,.03.1.036.3a3.435,3.435,0,0,1-.085.856,4.612,4.612,0,0,1-1.672,2.673,4.8,4.8,0,0,1-4.574.747,4.855,4.855,0,0,1,0-9.151,4.8,4.8,0,0,1,4.574.747,4.613,4.613,0,0,1,1.672,2.672,3.445,3.445,0,0,1,.085.857C200.183,205.191,200.171,205.294,200.153,205.294Z" transform="translate(-190.627 -200.44)"/></g><g transform="translate(19.545 14.89)"><path class="e" d="M211.388,204.853c-.049,0-.044-.4-.238-1.078a4.5,4.5,0,0,0-1.656-2.367,4.3,4.3,0,1,0,0,6.891,4.5,4.5,0,0,0,1.656-2.367c.193-.676.188-1.08.238-1.078.018,0,.031.1.037.291a3.344,3.344,0,0,1-.082.837,4.489,4.489,0,0,1-1.629,2.607,4.681,4.681,0,0,1-4.462.73,4.736,4.736,0,0,1,0-8.928,4.682,4.682,0,0,1,4.462.729,4.491,4.491,0,0,1,1.629,2.608,3.337,3.337,0,0,1,.082.836C211.418,204.755,211.405,204.853,211.388,204.853Z" transform="translate(-202.099 -200.119)"/></g><g transform="translate(17.519 17.919)"><path class="e" d="M202.325,203.876c-.1.094-.54-.189-1.132-.171-.593,0-1.019.3-1.124.212-.136-.072.278-.712,1.116-.725S202.457,203.8,202.325,203.876Z" transform="translate(-200.043 -203.192)"/></g><g transform="translate(4.617 19.387)"><path class="e" d="M191.11,204.7c.085.114-.777.9-1.923,1.755a6.733,6.733,0,0,1-2.229,1.344c-.085-.113.776-.9,1.923-1.755A6.775,6.775,0,0,1,191.11,204.7Z" transform="translate(-186.952 -204.682)"/></g></g><g transform="translate(59.848 21.483)"><path class="e" d="M283.239,205.134c0,.141-11.4.256-25.462.256s-25.464-.115-25.464-.256,11.4-.257,25.464-.257S283.239,204.992,283.239,205.134Z" transform="translate(-232.313 -204.877)"/></g><g transform="translate(60.182 26.813)"><path class="e" d="M259.693,210.541c0,.142-6.054.257-13.52.257s-13.521-.115-13.521-.257,6.052-.256,13.521-.256S259.693,210.4,259.693,210.541Z" transform="translate(-232.651 -210.285)"/></g></g></g><g transform="translate(238.396 115.673)"><path class="o" d="M438.618,245.093a38.827,38.827,0,0,1,18.288,23.623c4.753,17.029,19.311,61.377,19.311,61.377s8.319,9.786,9.21,17.034-.891,24.776-3.566,28.044a7.529,7.529,0,0,1-6.487,2.726l-35.014-3.32-13.788-92.32Z" transform="translate(-244.239 -118.561)"/><path class="o" d="M320.848,243.275s-25.035,7.852-31.275,14.685l20.5,95.368-.327,30.09H428.44c0-1.486,1.065-99.908,1.065-99.908l7.13-38.622-42.188-7.428-8.319-6.536L339.188,233.3l-7.13,7.13Z" transform="translate(-242.257 -118.356)"/><g class="p" transform="translate(67.573 205.759)"><path d="M330.655,327.379c-.366-.809-.888-1.683-1.758-1.863-1.43-.3-2.386,1.395-2.872,2.771a125.336,125.336,0,0,1-15.593,30.445l-.3,14.642c6.92-5.823,13.743-12.06,18.153-19.955S334.379,335.62,330.655,327.379Z" transform="translate(-310.127 -325.482)"/></g><path class="o" d="M288.878,258.357S280.629,269.6,277.2,276.943s-31.809,69-33.522,75.363-6.117,26.426,6.851,31.075H277.2l26.77-54.131,1.369-62.828Z" transform="translate(-241.562 -118.753)"/><g transform="translate(4.867 221.214)"><path class="e" d="M278.983,345.477c-.035.04-.6-.524-1.822-1.223a20.486,20.486,0,0,0-5.6-2.027,26.946,26.946,0,0,0-4.08-.574,16.256,16.256,0,0,0-4.677.3,17.44,17.44,0,0,0-8.979,5.636,24.322,24.322,0,0,0-5.084,9.452,47.188,47.188,0,0,0-1.6,8.725c-.249,2.523-.343,4.577-.43,5.995-.042.662-.076,1.2-.1,1.633a2.406,2.406,0,0,1-.07.569,2.423,2.423,0,0,1-.034-.572c0-.431,0-.973.006-1.638.027-1.421.064-3.48.269-6.02a45.085,45.085,0,0,1,1.512-8.825,24.41,24.41,0,0,1,5.153-9.659,17.723,17.723,0,0,1,9.26-5.757,16.447,16.447,0,0,1,4.809-.268,26.4,26.4,0,0,1,4.133.645,19.257,19.257,0,0,1,5.618,2.21,9.63,9.63,0,0,1,1.323.981A2.427,2.427,0,0,1,278.983,345.477Z" transform="translate(-246.501 -341.165)"/></g><g transform="translate(24.702 214.539)"><path class="e" d="M266.627,334.6a3.122,3.122,0,0,1,.9-.144,15.237,15.237,0,0,1,2.474-.033,20.452,20.452,0,0,1,3.638.537,21.668,21.668,0,0,1,8.092,3.86,20.366,20.366,0,0,1,2.707,2.488,15.219,15.219,0,0,1,1.531,1.943,3.075,3.075,0,0,1,.452.787c-.079.056-.8-1.012-2.246-2.482a23.423,23.423,0,0,0-2.727-2.36,23.228,23.228,0,0,0-7.925-3.78,23.427,23.427,0,0,0-3.551-.634C267.919,334.587,266.633,334.7,266.627,334.6Z" transform="translate(-266.627 -334.391)"/></g><g transform="translate(18.079 210.745)"><path class="e" d="M290.643,331.579a5.759,5.759,0,0,1-1.234-.094c-.786-.1-1.929-.217-3.34-.321a56.928,56.928,0,0,0-21.815,2.61c-1.347.435-2.43.816-3.17,1.1a5.752,5.752,0,0,1-1.177.382,5.682,5.682,0,0,1,1.1-.568c.719-.341,1.789-.777,3.13-1.259A50.428,50.428,0,0,1,286.1,330.8c1.417.152,2.559.322,3.339.485A5.718,5.718,0,0,1,290.643,331.579Z" transform="translate(-259.907 -330.542)"/></g><g transform="translate(89.8 122.074)"><path class="e" d="M367.662,277.6a1.694,1.694,0,0,1-.272-.32c-.19-.255-.43-.578-.727-.975l-2.681-3.714-9.29-13.108.414-.058c-1.437,4.22-3.023,8.876-4.692,13.777l-.105.309-.269-.172-.554-.356a28.486,28.486,0,0,1-5.807-4.9,34.517,34.517,0,0,1-4.146-5.734,47.841,47.841,0,0,1-4.563-11.031,74.523,74.523,0,0,1-1.728-7.857c-.156-.9-.28-1.61-.374-2.15-.044-.245-.095-.426-.125-.549a.585.585,0,0,1-.062-.182,8.976,8.976,0,0,1,.757,2.844c.382,1.857.918,4.549,1.879,7.793a48.981,48.981,0,0,0,4.623,10.894,34.557,34.557,0,0,0,4.11,5.634,28.261,28.261,0,0,0,5.71,4.808l.543.349-.375.137,4.734-13.763.151-.439.263.38,9.137,13.214,2.572,3.79c.273.415.493.751.667,1.017A1.76,1.76,0,0,1,367.662,277.6Z" transform="translate(-332.681 -240.569)"/></g><g class="p" transform="translate(155.424 204.627)"><path d="M399.527,324.334a53.913,53.913,0,0,0,6.858,31.981c5.524,9.606,13.615,18.167,23.7,22.762.326-9.787-.144-21.316.181-31.1Z" transform="translate(-399.269 -324.334)"/></g><g transform="translate(152.286 168.385)"><path class="m" d="M398.365,310.916s-4.312,1.2-1.078,10.03,4.312,8.3,6.467,16.563,4.671,15.8,8.444,20.474,17.784,14.192,17.784,14.192l12.575-11.857s-2.073-8.835-1.575-14.837,1.754-20.732,1.575-23.247-2.875-8.622-2.875-8.622v-4.179l-6.467-19.894s-3.592-1.616-4.85,4.132l-2.156-6.1s-3.413-.546-4.311,6.46.718,16.707.718,16.707l-1.8,12.216-2.694,8.264-2.336.359s-3.515-.96-5.44-7.576S403.215,309.479,398.365,310.916Z" transform="translate(-396.084 -287.56)"/><g transform="translate(28.252 29.557)"><path class="n" d="M438.761,342.6a1.981,1.981,0,0,1-.059-.453c-.024-.342-.053-.778-.091-1.316-.064-1.205-.154-2.872-.265-4.947-.194-4.29-.463-10.259-.778-17.227l.056.145a2.52,2.52,0,0,0-2.545-.663,3.716,3.716,0,0,0-2.331,1.709c-1.1,1.767-1.159,4.07-1.5,6.294-.682,5.035-1.331,9.829-1.924,14.2-.3,2.183-.615,4.259-1.041,6.181a40.258,40.258,0,0,1-1.558,5.24,43.635,43.635,0,0,0-1.353,4.266,13.058,13.058,0,0,0-.406,3.326,10.436,10.436,0,0,0,.5,2.818,4.112,4.112,0,0,1-.3-.689,7.819,7.819,0,0,1-.4-2.121,12.749,12.749,0,0,1,.326-3.4,41.494,41.494,0,0,1,1.29-4.321,41.1,41.1,0,0,0,1.485-5.211c.4-1.907.7-3.973.988-6.155.579-4.371,1.215-9.167,1.882-14.2.159-1.124.28-2.232.476-3.338a8.765,8.765,0,0,1,1.109-3.159,4.226,4.226,0,0,1,2.644-1.92,3.006,3.006,0,0,1,3.027.836l.053.064,0,.081c.239,6.972.444,12.943.592,17.235.053,2.077.1,3.746.127,4.952.006.54.011.977.014,1.32A1.973,1.973,0,0,1,438.761,342.6Z" transform="translate(-424.751 -317.551)"/></g><g transform="translate(32.791 14.809)"><path class="n" d="M431.953,319.743a5.117,5.117,0,0,1-.53-1.124,28.419,28.419,0,0,1-1.053-3.221,32.328,32.328,0,0,1-.9-4.949,14.4,14.4,0,0,1-.053-3,6.407,6.407,0,0,1,1.084-3.08,4.39,4.39,0,0,1,2.3-1.726l.193-.057.1.174c1.821,3.213,3.4,6.048,4.516,8.088l1.288,2.412a4.113,4.113,0,0,1,.413.9,4.132,4.132,0,0,1-.569-.816l-1.42-2.336c-1.191-2-2.828-4.8-4.667-8l.291.116a3.924,3.924,0,0,0-2.024,1.537,5.979,5.979,0,0,0-1,2.839,14.425,14.425,0,0,0,.025,2.9,36.291,36.291,0,0,0,.784,4.908c.316,1.382.653,2.481.889,3.24A6.689,6.689,0,0,1,431.953,319.743Z" transform="translate(-429.356 -302.586)"/></g><g transform="translate(31.852 4.516)"><path class="n" d="M428.933,321.208a4.922,4.922,0,0,1-.117-1.145c-.034-.848-.076-1.892-.126-3.127-.085-2.64-.167-6.289-.225-10.318a88.632,88.632,0,0,1,.16-10.34,15.911,15.911,0,0,1,.673-3.077,3.868,3.868,0,0,1,.461-1.058,29.11,29.11,0,0,0-.774,4.175c-.25,2.609-.038,6.261-.008,10.293.059,4.03.083,7.679.075,10.321-.015,1.236-.027,2.281-.036,3.129A4.958,4.958,0,0,1,428.933,321.208Z" transform="translate(-428.403 -292.142)"/></g><g transform="translate(21.744 46.362)"><path class="n" d="M418.152,354.948c-.073-.061.715-.988,1.687-2.667a22.188,22.188,0,0,0,1.463-3.066,21.946,21.946,0,0,0,1.469-8.139,22.09,22.09,0,0,0-.3-3.385c-.324-1.913-.738-3.056-.648-3.088a2.742,2.742,0,0,1,.358.779,14.251,14.251,0,0,1,.647,2.241,19.287,19.287,0,0,1,.415,3.444,20.437,20.437,0,0,1-1.5,8.322,19.261,19.261,0,0,1-1.592,3.081,14.283,14.283,0,0,1-1.391,1.875C418.393,354.756,418.179,354.971,418.152,354.948Z" transform="translate(-418.147 -334.603)"/></g><path class="m" d="M440.4,348.976l10.914,3.787s10.419-5.389,17.6,0,13.427,19.592,11.451,25.341c0,0-4.959,6.123-8.732,7.022s-18.438-2.655-24.54-3.939c-6.118-1.288-16.623-8.124-16.623-8.124Z" transform="translate(-396.582 -288.449)"/><g transform="translate(44.567 51.988)"><path class="n" d="M441.9,364.929a3.593,3.593,0,0,1-.116-.967c-.043-.739-.1-1.616-.156-2.636-.115-2.226-.265-5.305-.311-8.712a86.7,86.7,0,0,1,.252-8.726c.1-1.115.218-2.012.33-2.628a3.557,3.557,0,0,1,.226-.948c.081.013-.09,1.38-.194,3.6s-.151,5.3-.1,8.694c.062,3.331.117,6.343.162,8.707.012,1.116.009,2.019-.008,2.644A3.6,3.6,0,0,1,441.9,364.929Z" transform="translate(-441.306 -340.311)"/></g></g><g transform="translate(203.717 224.5)"><path class="e" d="M477.987,352.271A34.236,34.236,0,0,0,474.358,349a19.961,19.961,0,0,0-22.12-1.219,34.516,34.516,0,0,0-3.967,2.853,5.462,5.462,0,0,1,.9-.975,17.8,17.8,0,0,1,2.881-2.191,19.618,19.618,0,0,1,22.525,1.242A17.725,17.725,0,0,1,477.2,351.2,5.422,5.422,0,0,1,477.987,352.271Z" transform="translate(-448.27 -344.499)"/></g><g transform="translate(200.418 219.034)"><path class="e" d="M476.537,343.091a21.405,21.405,0,0,0-4.54-2.5,20.081,20.081,0,0,0-12.286-.369,28.519,28.519,0,0,0-6.354,2.644,30.161,30.161,0,0,0-4.6,3.251c-1.225,1.045-2.161,1.957-2.8,2.592a7.919,7.919,0,0,1-1.027.962,6.908,6.908,0,0,1,.882-1.1,34.123,34.123,0,0,1,2.71-2.728,28.167,28.167,0,0,1,4.6-3.388,27.722,27.722,0,0,1,6.452-2.729,19.71,19.71,0,0,1,12.556.525,14.457,14.457,0,0,1,3.359,1.9,9.333,9.333,0,0,1,.8.678C476.462,342.987,476.548,343.078,476.537,343.091Z" transform="translate(-444.923 -338.953)"/></g><g transform="translate(198.342 213.548)"><path class="e" d="M476.6,335.124c-.028.1-1.936-.481-5.1-.911a41.133,41.133,0,0,0-5.594-.355,40.687,40.687,0,0,0-13.458,2.368,41.218,41.218,0,0,0-5.137,2.243c-2.832,1.485-4.426,2.685-4.486,2.6a7.213,7.213,0,0,1,1.092-.873,15.478,15.478,0,0,1,1.355-.926c.544-.337,1.149-.75,1.867-1.119a37.022,37.022,0,0,1,5.148-2.368,38.537,38.537,0,0,1,13.619-2.4,37.078,37.078,0,0,1,5.646.469c.8.1,1.51.283,2.137.414a14.977,14.977,0,0,1,1.59.408A7.325,7.325,0,0,1,476.6,335.124Z" transform="translate(-442.816 -333.386)"/></g><g transform="translate(121.661 118.78)"><path class="e" d="M391.863,237.227a9.111,9.111,0,0,1,.756,2.9,28.312,28.312,0,0,1-.414,8.466,50.526,50.526,0,0,1-1.41,5.9,44.859,44.859,0,0,1-2.866,6.555c-2.35,4.532-5.308,9.475-8.734,14.745l-.4.616v-.737c-.006-3.483-.011-7.138-.017-10.935l.383.183-9.2,7.43.08-.117a96.927,96.927,0,0,0-4.094,22.124c-.9,11.994-.174,23.465.392,33.873.485,10.421.8,19.806,1.126,27.686s.6,14.256.835,18.659c.129,2.181.23,3.884.3,5.068.037.562.067,1,.088,1.318.017.3.013.451.013.451s-.031-.151-.065-.446c-.033-.318-.079-.754-.138-1.314-.109-1.157-.25-2.864-.4-5.065-.3-4.4-.639-10.776-1-18.655s-.771-17.265-1.237-27.679c-.591-10.4-1.334-21.9-.431-33.936a96.706,96.706,0,0,1,4.134-22.236l.022-.071.058-.047,9.22-7.41.384-.308v.492c-.006,3.8-.012,7.453-.017,10.935l-.4-.121c6.77-10.5,12.277-19.623,13.124-27a29.161,29.161,0,0,0,.531-8.4,14.216,14.216,0,0,0-.4-2.185C391.927,237.481,391.863,237.227,391.863,237.227Z" transform="translate(-365.009 -237.227)"/></g><path class="d" d="M374.276,366.222l-.352-.013a2.785,2.785,0,1,0,.352.013Z" transform="translate(-243.438 -120.313)"/><g transform="translate(127.786 168.384)"><path class="d" d="M374.276,327.68l-.352-.012a2.777,2.777,0,1,0,.352.012Z" transform="translate(-371.224 -288.139)"/><path class="d" d="M373.908,293.117a2.78,2.78,0,0,0,.369-5.546l-.352-.013a2.781,2.781,0,0,0-.017,5.558Z" transform="translate(-371.224 -287.559)"/></g><g transform="translate(75.042)"><path class="e" d="M330.585,190.975c-3.456-3.825-6.942-7.692-9.46-12.19s-4.021-9.747-3.187-14.833c.488-2.974,1.752-5.809,1.952-8.817.277-4.138-1.464-8.463,0-12.343,2.293-6.063,10.455-7,15.4-11.189,3.853-3.262,5.731-8.558,9.97-11.3,3.7-2.4,8.461-2.345,12.829-1.727s8.762,1.72,13.134,1.132c3.116-.419,6.051-1.679,9.1-2.435s6.458-.955,9.177.625,4.245,5.439,2.462,8.029c5.067-2.336,11.5,1.612,12.888,7.016s-1.389,11.242-5.682,14.8-9.844,5.221-15.327,6.255c-15.52,2.925-32.355,1.274-45.731-7.125" transform="translate(-317.706 -116.703)"/><g transform="translate(0.963 8.74)"><g transform="translate(9.448 3.448)"><path class="m" d="M385.3,243.333c-.758-5.875-1.378-10.777-1.416-11.386,0,0,19.634-4.412,18.552-24.264-.522-9.594-3.208-29.266-5.844-47.036a37.033,37.033,0,0,0-39.113-31.494l-1.914.128c-20.556,2.586-29.845,21.489-26.691,41.968l11.092,68.662S344.7,255.1,354.821,257.73L367.6,275.982l2.111-7.857,9.524-8.291a37.462,37.462,0,0,0,4.7-6.989A15.3,15.3,0,0,0,385.3,243.333Z" transform="translate(-328.27 -129.07)"/><g transform="translate(29.275 96.969)"><path class="n" d="M384.327,233.083s-12.469,1.858-26.352-5.62c0,0,7.067,13.867,26.741,10.757Z" transform="translate(-357.975 -227.463)"/></g><g transform="translate(20.95 30.031)"><g transform="translate(2.626 8.942)"><g transform="translate(29.926)"><g transform="translate(2.793 7.28)"><path class="e" d="M391.037,178.385a2.84,2.84,0,0,1-2.541,3.041,2.716,2.716,0,0,1-3.091-2.359,2.841,2.841,0,0,1,2.537-3.042A2.718,2.718,0,0,1,391.037,178.385Z" transform="translate(-385.392 -176.003)"/></g><path class="e" d="M393.765,171.24c-.326.392-2.578-1.053-5.627-.84-3.047.168-5.179,1.885-5.534,1.534-.174-.155.139-.846,1.065-1.619a7.782,7.782,0,0,1,4.4-1.685,7.481,7.481,0,0,1,4.51,1.128C393.565,170.417,393.927,171.063,393.765,171.24Z" transform="translate(-382.558 -168.616)"/></g><g transform="translate(0 2.572)"><g transform="translate(3.923 6.767)"><path class="e" d="M361.818,180.474a2.838,2.838,0,0,1-2.541,3.04,2.714,2.714,0,0,1-3.091-2.358,2.841,2.841,0,0,1,2.538-3.042A2.718,2.718,0,0,1,361.818,180.474Z" transform="translate(-356.173 -178.092)"/></g><path class="e" d="M363.4,173.85c-.326.393-2.582-1.051-5.627-.839-3.046.168-5.179,1.885-5.535,1.534-.173-.155.136-.845,1.067-1.619a7.783,7.783,0,0,1,4.4-1.686,7.492,7.492,0,0,1,4.51,1.129C363.2,173.028,363.562,173.674,363.4,173.85Z" transform="translate(-352.192 -171.226)"/></g><g transform="translate(20.663 1.757)"><path class="e" d="M376.279,195.705c-.026-.172,1.847-.627,4.891-1.225.773-.132,1.5-.336,1.595-.876a3.963,3.963,0,0,0-.674-2.272q-1.286-2.753-2.7-5.774c-3.761-8.224-6.539-15.009-6.207-15.157s3.651,6.4,7.412,14.623q1.363,3.044,2.6,5.815a4.52,4.52,0,0,1,.608,3.028,1.955,1.955,0,0,1-1.2,1.224,5.287,5.287,0,0,1-1.31.272C378.219,195.736,376.3,195.878,376.279,195.705Z" transform="translate(-373.159 -170.398)"/></g></g><g transform="translate(0 0.221)"><path class="e" d="M363.35,161.687c-.245.849-3.315.659-6.862,1.329-3.562.6-6.374,1.839-6.9,1.127-.235-.342.216-1.155,1.329-2.035a12.147,12.147,0,0,1,10.484-1.873C362.749,160.678,363.454,161.285,363.35,161.687Z" transform="translate(-349.528 -159.766)"/></g><g transform="translate(31.631)"><path class="e" d="M392.041,162.362c-.49.728-2.638.15-5.165.286-2.532.046-4.632.777-5.173.086-.239-.337.051-1.054.941-1.771a7.491,7.491,0,0,1,8.331-.3C391.914,161.315,392.255,162.008,392.041,162.362Z" transform="translate(-381.623 -159.542)"/></g></g></g><g transform="translate(0 59.841)"><path class="m" d="M331.336,186.657c-.348-.124-13.9-3.12-12.56,10.412s16.006,9.122,15.991,8.732S331.336,186.657,331.336,186.657Z" transform="translate(-318.684 -186.291)"/><g transform="translate(3.505 4.602)"><path class="n" d="M328.822,201.424c-.064-.037-.22.188-.6.411a2.365,2.365,0,0,1-1.758.21c-1.481-.383-2.91-2.533-3.218-4.966a7.822,7.822,0,0,1,.325-3.44,2.736,2.736,0,0,1,1.595-1.985,1.2,1.2,0,0,1,1.455.509c.219.361.16.639.234.655.042.03.269-.255.1-.8a1.514,1.514,0,0,0-.617-.8A1.791,1.791,0,0,0,325,191a3.33,3.33,0,0,0-2.255,2.342,8.041,8.041,0,0,0-.443,3.853c.357,2.718,2.006,5.132,4.018,5.5a2.538,2.538,0,0,0,2.12-.572C328.83,201.754,328.872,201.444,328.822,201.424Z" transform="translate(-322.24 -190.96)"/></g></g><g transform="translate(7.253)"><path class="e" d="M395.561,142.108c-.93,5.387-11.855,10.322-20.913,10.058-8.35-.242-12.476-4.387-18.544-7.331-3.84-1.864-3.84-1.864-9.051-1.016-4.214.685-6.4,5.656-8.766,9.21,4.507,9.824,2.685,21.249.775,31.888a5.407,5.407,0,0,1-1.369,3.235c-1.522,1.34-3.988.537-5.484-.832-2.395-2.193-3.486-5.446-4.27-8.6a55.926,55.926,0,0,1-1.341-22.006,38.073,38.073,0,0,1,9.156-19.868,36.062,36.062,0,0,1,24.6-11.226,44.291,44.291,0,0,1,26.239,7.45c3.588,2.35,6.943,5.257,8.97,9.036" transform="translate(-326.043 -125.571)"/></g></g><path class="n" d="M378.189,202.981l-6.9-3.217a2.322,2.322,0,0,0-1.255-.316,2,2,0,0,0-1.193.81,6.416,6.416,0,0,0-.765,7.049,5.389,5.389,0,0,0,6.474,2.38c2.444-1.012,3.633-3.852,3.824-6.491Z" transform="translate(-318.425 -117.9)"/><g transform="translate(48.096 80.658)"><path class="e" d="M374.755,210.161c.02.059-.318.258-1.008.4a5.981,5.981,0,0,1-2.968-.218,6.192,6.192,0,0,1-3.425-2.847,6.358,6.358,0,0,1-.421-5.44,6.648,6.648,0,0,1,1.6-2.413,6.143,6.143,0,0,1,1.119-.846,1.821,1.821,0,0,1,.8-.253,1.8,1.8,0,0,1,.8.155,10.028,10.028,0,0,1,1.075.61l.94.578,1.679,1.051c2.046,1.3,3.275,2.163,3.2,2.285s-1.43-.52-3.569-1.659l-1.743-.942-.966-.532a10.822,10.822,0,0,0-.975-.513.729.729,0,0,0-.755.072,5.438,5.438,0,0,0-.907.718,5.852,5.852,0,0,0-1.341,2.057,5.565,5.565,0,0,0,.292,4.619,5.689,5.689,0,0,0,2.849,2.621,6.75,6.75,0,0,0,2.672.5C374.361,210.151,374.733,210.087,374.755,210.161Z" transform="translate(-366.508 -198.545)"/></g><g transform="translate(25.645 46.827)"><path class="e" d="M372.249,178.554a24.45,24.45,0,0,0-.538-3.426,14.088,14.088,0,0,0-5.153-7.663,13.906,13.906,0,0,0-13.174-1.961,13.931,13.931,0,0,0-6.445,4.846,13.827,13.827,0,0,0,0,16.408,13.931,13.931,0,0,0,6.446,4.848,14.013,14.013,0,0,0,18.327-9.626,24.45,24.45,0,0,0,.538-3.426.763.763,0,0,1,.015.23c0,.182,0,.4-.008.674a6.516,6.516,0,0,1-.087,1.095,9.885,9.885,0,0,1-.265,1.476,13.338,13.338,0,0,1-1.529,3.815,14.275,14.275,0,0,1-9.611,6.8,14.348,14.348,0,0,1-7.542-.6,14.354,14.354,0,0,1-6.69-4.995,14.285,14.285,0,0,1,0-17,14.353,14.353,0,0,1,6.689-4.993,14.358,14.358,0,0,1,7.542-.6,14.275,14.275,0,0,1,9.61,6.8,13.315,13.315,0,0,1,1.53,3.815,10.028,10.028,0,0,1,.265,1.477,6.505,6.505,0,0,1,.087,1.094c0,.27.006.492.008.675A.753.753,0,0,1,372.249,178.554Z" transform="translate(-343.728 -164.217)"/></g><g transform="translate(60.119 45.862)"><path class="e" d="M406.506,177.215a24.143,24.143,0,0,0-.527-3.338,13.723,13.723,0,0,0-5.021-7.464,13.542,13.542,0,0,0-12.833-1.909,13.565,13.565,0,0,0-6.277,4.72,13.471,13.471,0,0,0,0,15.981,13.579,13.579,0,0,0,6.278,4.722,13.654,13.654,0,0,0,17.854-9.374,24.145,24.145,0,0,0,.527-3.337,5.643,5.643,0,0,1,.008.88,6.438,6.438,0,0,1-.084,1.066,9.58,9.58,0,0,1-.258,1.44,13.862,13.862,0,0,1-10.856,10.349,13.994,13.994,0,0,1-7.352-.579,14,14,0,0,1-6.522-4.869,13.929,13.929,0,0,1,0-16.577,14,14,0,0,1,6.521-4.868,14,14,0,0,1,7.351-.579,13.861,13.861,0,0,1,10.857,10.349,9.682,9.682,0,0,1,.258,1.44,6.438,6.438,0,0,1,.084,1.066A5.66,5.66,0,0,1,406.506,177.215Z" transform="translate(-378.708 -163.238)"/></g><g transform="translate(53.487 55.162)"><path class="e" d="M378.867,174.233c-.055.058-.381-.217-.981-.5a5.661,5.661,0,0,0-2.482-.544,5.589,5.589,0,0,0-2.461.63c-.587.306-.9.6-.959.541-.047-.038.181-.433.77-.851a4.869,4.869,0,0,1,5.309-.093C378.667,173.81,378.913,174.193,378.867,174.233Z" transform="translate(-371.979 -172.674)"/></g><g transform="translate(14.094 59.152)"><path class="e" d="M344.668,176.728a60.989,60.989,0,0,1-6.175,4.931,61.058,61.058,0,0,1-6.484,4.521,121.645,121.645,0,0,1,12.659-9.451Z" transform="translate(-332.007 -176.723)"/></g></g><g class="p" transform="translate(89.916 123.3)"><path d="M333.018,241.813c-1.371,13.375,3.714,27.492,14.442,35.6.842.636,1.9,1.266,2.891.908a3.175,3.175,0,0,0,1.5-1.544,26.116,26.116,0,0,0,3.2-17.185c-1.7,4.473-3.157,8.864-4.872,13.543C340.826,267.456,335,255.389,333.018,241.813Z" transform="translate(-332.798 -241.813)"/></g><path class="q" d="M369.871,272.206l7.87-2.874,1.3,13.313s8.494-15.481,12.01-22.545,1.707-19.528,1.707-19.528,1.258,10.858-7.254,24.708l-6.425,10.442V264.785Z" transform="translate(-243.419 -118.495)"/><g class="p" transform="translate(7.117 219.742)"><path d="M276.546,341.3a21.042,21.042,0,0,0-11.406-1.431,22,22,0,0,0-11.352,4.295c-3.191,2.575-5.355,6.633-4.957,10.714l.394.056c2.747-7.434,8.21-12.843,15.255-13.5s13.919,2.482,18.755,7.646C282.765,345.233,280.057,342.963,276.546,341.3Z" transform="translate(-248.784 -339.671)"/></g><g class="p" transform="translate(204.807 223.418)"><path d="M478.511,348.959a18.045,18.045,0,0,0-10.167-5.238,22.849,22.849,0,0,0-18.968,5.491l1.5-1.219a23.93,23.93,0,0,1,12.632-3.433,18.286,18.286,0,0,1,12.041,4.81c2.942,2.8,4.711,6.589,6.4,10.287A12.893,12.893,0,0,0,478.511,348.959Z" transform="translate(-449.376 -343.401)"/></g><g transform="translate(183.193 140.251)"><path class="e" d="M427.45,285.906a4.857,4.857,0,0,1,.354-1.076c.3-.779.678-1.736,1.119-2.864.954-2.415,2.262-5.754,3.643-9.464s2.572-7.094,3.429-9.545l1.025-2.9a4.807,4.807,0,0,1,.436-1.045,4.753,4.753,0,0,1-.245,1.1c-.188.7-.486,1.712-.87,2.954-.77,2.483-1.91,5.891-3.293,9.61s-2.748,7.042-3.788,9.424c-.519,1.191-.954,2.148-1.27,2.8A4.79,4.79,0,0,1,427.45,285.906Z" transform="translate(-427.445 -259.013)"/></g><g transform="translate(54.656 147.06)"><path class="e" d="M301.317,286.973c-.139.029-1.21-4.662-2.392-10.474s-2.028-10.549-1.889-10.577,1.209,4.661,2.392,10.475S301.456,286.945,301.317,286.973Z" transform="translate(-297.021 -265.922)"/></g><g transform="translate(10.878 162.541)"><path class="m" d="M299.44,345.825c.311.157-3.61-30.711-3.61-30.711s2.475-23.425,3.866-24.509l.036-8.265s3.831-2.321,4.86,1.426c0,0,3.4-2.95,3.99,4.072s.718,14.2.718,14.2l7.561,18.906,1.246.63s1.623-14.811,2.569-16.992,1.592-7.48,5.176-6.685,3.884,3.761,3.238,8.594-1.446,9.821-1.148,12.941,1.717,9.991,1.281,15.448-3.424,11.216-6.562,15.258-9.129,12.4-12.387,14.921C309.138,365.938,299.44,345.825,299.44,345.825Z" transform="translate(-253.225 -281.63)"/><g transform="translate(46.639 9.377)"><path class="n" d="M303.316,320.844a6.562,6.562,0,0,1,.021-1.322c.065-.948.148-2.15.247-3.586.231-3.026.584-7.2,1.006-11.813.218-2.3.426-4.49.616-6.5a11.579,11.579,0,0,0,.034-2.786,3.946,3.946,0,0,0-.942-2.131,4.245,4.245,0,0,0-3.087-1.354,8.127,8.127,0,0,0-1.287.165c-.006-.017.1-.071.307-.162a3.334,3.334,0,0,1,.973-.2,4.338,4.338,0,0,1,3.36,1.308,4.289,4.289,0,0,1,1.1,2.31,11.684,11.684,0,0,1,.017,2.9c-.178,2.01-.373,4.2-.576,6.5-.423,4.61-.834,8.782-1.157,11.8l-.409,3.571A6.464,6.464,0,0,1,303.316,320.844Z" transform="translate(-299.924 -291.145)"/></g><g transform="translate(49.75 26.45)"><path class="n" d="M307.426,308.47a10.643,10.643,0,0,0-1.338,2.436,41.18,41.18,0,0,0-1.257,6.663c-.408,2.639-.8,5.023-1.118,6.746a15.524,15.524,0,0,1-.611,2.77,15.553,15.553,0,0,1,.252-2.826c.222-1.736.562-4.13.969-6.769a31.851,31.851,0,0,1,1.426-6.716,6.38,6.38,0,0,1,1.092-1.8C307.173,308.6,307.409,308.451,307.426,308.47Z" transform="translate(-303.081 -308.468)"/></g><g transform="translate(51.301 1.731)"><path class="n" d="M304.671,283.386a3.866,3.866,0,0,1,.263.971c.138.631.309,1.549.5,2.689.377,2.277.789,5.443,1.051,8.957s.315,6.708.277,9.017c-.018,1.154-.052,2.087-.1,2.732a3.824,3.824,0,0,1-.117,1,32.558,32.558,0,0,1-.149-3.729c-.054-2.3-.169-5.479-.426-8.98s-.614-6.66-.9-8.945A32.508,32.508,0,0,1,304.671,283.386Z" transform="translate(-304.655 -283.386)"/></g><g transform="translate(68.574 29.279)"><path class="n" d="M326.735,312.731a2.75,2.75,0,0,1-2.547.217c-1.447-.432-2.12-1.545-1.993-1.6a6.663,6.663,0,0,0,4.539,1.384Z" transform="translate(-322.181 -311.339)"/></g><path class="m" d="M299.239,342.873l-19.975,8.395h-11.9s-11.772,3.673-13.583,14.708-2.071,16.714,3.1,18.079,19.792,1.517,27.036-.888,26.22-17.716,26.22-17.716l1.829-11.077Z" transform="translate(-252.6 -282.516)"/><g transform="translate(45.31 54.42)"><path class="n" d="M304.583,354.981c-.026.024-.226-.162-.568-.521a12.233,12.233,0,0,1-1.3-1.651,22.57,22.57,0,0,1-2.79-6.317,37.457,37.457,0,0,1-1.23-6.788,12.7,12.7,0,0,1-.078-2.854,20.68,20.68,0,0,1,.438,2.813,50.892,50.892,0,0,0,1.364,6.689,26.4,26.4,0,0,0,2.6,6.265C303.922,354.108,304.654,354.917,304.583,354.981Z" transform="translate(-298.575 -336.849)"/></g></g><g transform="translate(61.853 211.231)"><path class="n" d="M313.362,358.4a20.609,20.609,0,0,0,1.138-4.282,13.8,13.8,0,0,0-2.683-10.025c-1.214-1.7-2.578-3.181-3.728-4.613a21.352,21.352,0,0,1-2.7-4.083,10.709,10.709,0,0,1-1-3.15,3.639,3.639,0,0,1-.034-1.211,13.671,13.671,0,0,0,1.36,4.2,22.852,22.852,0,0,0,2.742,3.946c1.158,1.4,2.539,2.879,3.78,4.617a14.381,14.381,0,0,1,2.491,5.465,13.929,13.929,0,0,1,.133,4.906,12.607,12.607,0,0,1-.916,3.172,6.9,6.9,0,0,1-.4.8C313.439,358.318,313.378,358.407,313.362,358.4Z" transform="translate(-304.323 -331.035)"/></g></g><g transform="translate(426.239 105.788)"><g transform="translate(0 0.198)"><path class="r" d="M432.164,184.306l8.657-15.256a40.875,40.875,0,1,1,9.79,10.891l.014.018Z" transform="translate(-432.164 -106.874)"/></g><g transform="translate(0.001)"><path class="e" d="M432.165,184.3l18.488-4.225.19-.043-.119-.155-.014-.019-.176.176a41.846,41.846,0,0,0,8.395,5.061,40.958,40.958,0,0,0,11.193,3.2,36.822,36.822,0,0,0,6.463.327c1.112-.063,2.244-.091,3.385-.186l3.449-.521a41.189,41.189,0,0,0,25.509-16.375,40.727,40.727,0,0,0,6.9-15.77,41.634,41.634,0,0,0-.482-18.159,40.281,40.281,0,0,0-8.75-16.788l-1.668-1.834c-.548-.617-1.2-1.125-1.8-1.691-.621-.535-1.183-1.141-1.85-1.614l-1.959-1.464a17.166,17.166,0,0,0-2.029-1.342l-2.071-1.258-2.168-1.053a18.979,18.979,0,0,0-2.189-.973,41.638,41.638,0,0,0-18.3-2.812,40.272,40.272,0,0,0-16.794,4.964A41.4,41.4,0,0,0,436.4,135.587a44.092,44.092,0,0,0-1.774,13.277,40.6,40.6,0,0,0,2,11.463,41.42,41.42,0,0,0,4.095,8.784l0-.123c-5.463,9.782-8.133,14.564-8.551,15.315.429-.745,3.165-5.489,8.761-15.2l.035-.061-.038-.062a41.406,41.406,0,0,1-4.016-8.75,40.42,40.42,0,0,1-1.935-11.38,43.9,43.9,0,0,1,1.8-13.152A41.052,41.052,0,0,1,456,112.149a39.842,39.842,0,0,1,16.606-4.884,41.2,41.2,0,0,1,18.077,2.791,18.7,18.7,0,0,1,2.162.962l2.141,1.041,2.045,1.243a16.862,16.862,0,0,1,2,1.327l1.936,1.447c.66.467,1.213,1.066,1.827,1.595.586.56,1.232,1.061,1.773,1.671l1.647,1.811a39.807,39.807,0,0,1,8.646,16.581,41.157,41.157,0,0,1,.49,17.942,40.287,40.287,0,0,1-6.8,15.6,40.819,40.819,0,0,1-25.208,16.255l-3.415.526c-1.13.1-2.252.128-3.353.194a36.418,36.418,0,0,1-6.407-.3,40.759,40.759,0,0,1-11.116-3.123,41.8,41.8,0,0,1-8.365-4.981l-.76-.581.583.757.014.019.071-.2Z" transform="translate(-432.165 -106.673)"/></g><g transform="translate(22.026 35.312)"><g transform="translate(32.412 0.001)"><path class="e" d="M487.4,146.492a3.987,3.987,0,1,0,3.987-3.987A3.987,3.987,0,0,0,487.4,146.492Z" transform="translate(-487.402 -142.505)"/></g><g transform="translate(16.453 0.001)"><path class="e" d="M471.208,146.492a3.988,3.988,0,1,0,3.988-3.987A3.988,3.988,0,0,0,471.208,146.492Z" transform="translate(-471.208 -142.505)"/></g><path class="e" d="M455.049,144.5a3.988,3.988,0,1,0,5.447-1.46A3.986,3.986,0,0,0,455.049,144.5Z" transform="translate(-454.514 -142.504)"/></g></g><g transform="translate(572.61 273.998)"><g transform="translate(0 29.384)"><path class="s" d="M656.828,394.038S630.7,363.971,620.846,333.9s-5.175-26.616-5.175-26.616,13.309,29.207,23.412,43.315,28.1,34.81,28.1,34.81Z" transform="translate(-614.559 -307.167)"/></g><g transform="translate(44.623 33.408)"><path class="s" d="M662.69,312.031a1.522,1.522,0,0,0-2.833.968c1.593,10.561,5.035,35.346,4.9,51.421-.175,20.881.007,28.954.007,28.954h10.872s-1.93-43.168-4.387-56.329C669.527,327.816,665.87,317.57,662.69,312.031Z" transform="translate(-659.837 -311.25)"/></g><g transform="translate(53.403 29.685)"><path class="s" d="M668.746,389.809a115.159,115.159,0,0,0,8.95-32.464c.9-7.687-.7-18.075-3.078-31.937a86.012,86.012,0,0,1-1.375-15.367,2.594,2.594,0,0,1,4.87-1.217c1.313,2.343,5.111,10.341,6.075,15.356,2.632,13.688,5.616,20.532,3.334,33.517s-10.7,32.991-10.7,32.991Z" transform="translate(-668.746 -307.472)"/></g><g transform="translate(63.197 13.041)"><path class="s" d="M678.684,390.442s28.683-61.64,30.671-70.785,8.748-30.217,9.543-29.025,1.988,12.325-3.181,25.048-27.238,76.64-27.238,76.64h-9.794" transform="translate(-678.684 -290.584)"/></g><g transform="translate(0.35 30.199)"><path class="e" d="M664.826,387.935a5.857,5.857,0,0,1-.8-.552c-.51-.385-1.282-.928-2.222-1.7a101.692,101.692,0,0,1-7.709-6.805,129.354,129.354,0,0,1-20.809-26.708,175.01,175.01,0,0,1-14.2-30.769c-1.443-4.094-2.5-7.446-3.178-9.773-.35-1.161-.591-2.073-.761-2.689a5.883,5.883,0,0,1-.223-.949,5.812,5.812,0,0,1,.341.914q.324.991.87,2.653c.752,2.3,1.866,5.63,3.358,9.7a186.034,186.034,0,0,0,14.324,30.6A135,135,0,0,0,654.4,378.574c3.07,3.051,5.7,5.376,7.555,6.929.915.794,1.663,1.366,2.146,1.783A5.9,5.9,0,0,1,664.826,387.935Z" transform="translate(-614.914 -307.994)"/></g><g transform="translate(46.038 34.821)"><path class="e" d="M668.636,358.432a10.356,10.356,0,0,1-.257-1.808c-.137-1.276-.314-2.939-.529-4.941-.454-4.17-1.163-9.92-2.176-16.239s-2.147-12-3.024-16.1c-.424-1.969-.777-3.6-1.047-4.858a10.39,10.39,0,0,1-.322-1.8,10.5,10.5,0,0,1,.554,1.74c.321,1.13.746,2.776,1.238,4.819.985,4.084,2.185,9.77,3.206,16.1s1.658,12.106,2,16.294c.173,2.094.286,3.79.335,4.965A10.582,10.582,0,0,1,668.636,358.432Z" transform="translate(-661.273 -312.684)"/></g><g transform="translate(57.19 30.553)"><path class="e" d="M675.518,308.353a4.377,4.377,0,0,1,.338.784c.219.58.5,1.34.86,2.289.379.993.816,2.218,1.231,3.67s.979,3.079,1.394,4.936q.34,1.388.711,2.9c.24,1.009.411,2.077.631,3.172.468,2.189.758,4.562,1.106,7.052a105.3,105.3,0,0,1-1.168,32.585c-.525,2.459-.984,4.805-1.607,6.956-.3,1.077-.545,2.13-.857,3.119s-.624,1.934-.915,2.84c-.548,1.821-1.215,3.41-1.744,4.823s-1.041,2.609-1.49,3.572q-.636,1.381-1.022,2.222a4.528,4.528,0,0,1-.393.757,4.417,4.417,0,0,1,.281-.808l.915-2.264c.415-.976.9-2.175,1.39-3.6s1.133-3.012,1.652-4.835q.42-1.359.875-2.839c.3-.989.533-2.039.819-3.114.6-2.145,1.038-4.483,1.544-6.933a108.808,108.808,0,0,0,1.162-32.414c-.331-2.479-.6-4.843-1.045-7.025-.208-1.093-.366-2.157-.593-3.165s-.455-1.971-.669-2.9c-.386-1.855-.908-3.489-1.3-4.94s-.785-2.689-1.128-3.691c-.311-.964-.56-1.737-.75-2.325A4.463,4.463,0,0,1,675.518,308.353Z" transform="translate(-672.588 -308.353)"/></g><g transform="translate(67.886 14.328)"><path class="e" d="M718.637,291.89a.945.945,0,0,1-.023.276c-.034.217-.076.48-.127.8-.126.7-.285,1.742-.566,3.068-.554,2.652-1.476,6.468-2.911,11.1s-3.388,10.06-5.712,16.025-5,12.469-7.549,19.39c-2.586,6.91-4.578,13.654-6.449,19.774-1.855,6.124-3.615,11.621-5.316,16.16a102.92,102.92,0,0,1-4.529,10.541c-.586,1.221-1.116,2.132-1.457,2.758l-.4.7a.971.971,0,0,1-.155.23.93.93,0,0,1,.1-.259l.348-.733c.3-.644.8-1.57,1.35-2.8,1.155-2.443,2.71-6.035,4.337-10.587,1.644-4.545,3.357-10.043,5.181-16.175,1.841-6.125,3.822-12.893,6.415-19.822,2.552-6.938,5.259-13.434,7.6-19.384S713.12,311.6,714.6,307s2.468-8.387,3.092-11.017c.315-1.315.511-2.347.677-3.039l.186-.789A.948.948,0,0,1,718.637,291.89Z" transform="translate(-683.441 -291.89)"/></g><g transform="translate(10.453)"><path class="s" d="M629.348,278.065a2.469,2.469,0,0,0-4.065,2.518,70.441,70.441,0,0,0,3.6,9.268c3.943,8.379,15.526,38.447,20.948,54.959S662.9,392.129,662.9,392.129l11.578-1.878s-10.592-50.617-20.943-68.854C645.215,306.742,636.9,285.565,629.348,278.065Z" transform="translate(-625.165 -277.351)"/><g transform="translate(27.831 77.785)"><path class="e" d="M653.412,356.279a7.134,7.134,0,0,1,.6,1.388c.343.908.809,2.233,1.335,3.887,1.066,3.3,2.371,7.917,3.686,13.042s2.4,9.791,3.165,13.173l.87,4.012a7.114,7.114,0,0,1,.24,1.491,7.279,7.279,0,0,1-.471-1.435c-.282-1.056-.638-2.384-1.06-3.966-.885-3.483-2.05-8.061-3.337-13.123-1.314-5.119-2.55-9.74-3.508-13.067-.457-1.57-.841-2.89-1.146-3.937A7.145,7.145,0,0,1,653.412,356.279Z" transform="translate(-653.405 -356.279)"/></g><g transform="translate(1.335 0.519)"><path class="e" d="M668.732,391.2a1.241,1.241,0,0,1-.065-.308l-.131-.912c-.122-.8-.23-1.989-.475-3.507-.425-3.041-1.184-7.425-2.427-12.771a182.865,182.865,0,0,0-5.419-18.5c-2.374-6.859-5.353-14.271-8.729-21.942-6.812-15.323-13.616-28.914-18.087-38.964-2.261-5.014-4.01-9.106-5.162-11.958-.588-1.42-1.008-2.539-1.3-3.293l-.321-.863a.159.159,0,1,1,.057-.024c.1.222.225.5.378.84.34.785.81,1.871,1.407,3.247,1.219,2.822,3.028,6.884,5.336,11.871,4.569,10,11.432,23.551,18.255,38.9,3.38,7.682,6.35,15.118,8.7,22.006a174.1,174.1,0,0,1,5.308,18.584,129.632,129.632,0,0,1,2.241,12.837c.209,1.525.279,2.72.361,3.525.029.374.052.676.071.918A1.158,1.158,0,0,1,668.732,391.2Z" transform="translate(-626.52 -277.878)"/></g><g transform="translate(36.629 64.249)"><path class="e" d="M675.013,391.194a12.15,12.15,0,0,1-.39-1.945c-.231-1.36-.534-3.154-.9-5.323-.8-4.486-2.015-10.664-3.768-17.39-1.734-6.732-3.688-12.72-5.19-17.02l-1.811-5.085a12.446,12.446,0,0,1-.616-1.886,12.187,12.187,0,0,1,.839,1.8c.5,1.176,1.2,2.887,2,5.025a168.39,168.39,0,0,1,5.376,17.014,177.11,177.11,0,0,1,3.6,17.472c.329,2.26.581,4.09.711,5.36A12.333,12.333,0,0,1,675.013,391.194Z" transform="translate(-662.332 -342.544)"/></g></g><g transform="translate(29.014 111.236)"><g transform="translate(9.319)"><rect class="t" width="45.194" height="55.063"/></g><rect class="u" width="40.096" height="55.063"/></g></g></g></svg>