<svg xmlns="http://www.w3.org/2000/svg" width="152.19" height="24.893" viewBox="0 0 152.19 24.893"><defs><style>.logo{fill:#fff;font-size:18px;font-family:Raleway-Regular, Raleway;}.b{font-family:Raleway-Bold, Raleway;font-weight:700;}.c{fill:#8cc408;}.d{fill:#da005a;}.e{fill:#37d6b5;}.f{fill:#ff7600;}.g{fill:#ffe53c;}.h{fill:#0f9b2c;}.i{fill:#0b2747;}</style></defs><g transform="translate(-861.854 257)"><g transform="translate(893.044 -255.215)"><g transform="translate(0 0)"><text class="logo" transform="translate(60 17)"><tspan x="-60.75" y="0">Você na </tspan><tspan class="b" y="0">Facul </tspan></text></g></g><g transform="translate(861.854 -257)"><rect class="c" width="6.223" height="6.223" transform="translate(6.223 12.446)"/><path class="d" d="M5101.9,652.588l-6.223-6.223h6.223Z" transform="translate(-5089.458 -627.695)"/><path class="e" d="M4913.865,270.285l-6.223,6.223,6.223,6.223V270.285Z" transform="translate(-4907.642 -264.062)"/><path class="f" d="M5283.723,88.468v6.223h12.446l-12.446-12.446Z" transform="translate(-5271.276 -82.244)"/><path class="g" d="M5283.723,464.548h0v6.223l12.446-12.446h-12.446Z" transform="translate(-5271.276 -445.878)"/><path class="h" d="M5101.9,270.285v6.223h-6.223Z" transform="translate(-5089.458 -264.062)"/><path class="i" d="M5095.682,94.691V88.468l6.223-6.223v6.223Z" transform="translate(-5089.458 -82.245)"/></g></g></svg>